<svg width="16" height="14" viewBox="0 0 16 14" fill="none" xmlns="http://www.w3.org/2000/svg">
<path fill-rule="evenodd" clip-rule="evenodd" d="M15.3075 6.34456C15.6155 6.06425 15.7242 5.65284 15.5914 5.27041C15.4582 4.88797 15.1114 4.61497 14.6853 4.55704L10.8967 4.04293C10.7353 4.02098 10.5959 3.92647 10.5238 3.78983L8.83005 0.58404C8.63987 0.223843 8.25387 0 7.82369 0C7.39382 0 7.00782 0.223843 6.81764 0.58404L5.12355 3.79012C5.05149 3.92676 4.91175 4.02128 4.75039 4.04322L0.961807 4.55733C0.536014 4.61497 0.188863 4.88827 0.0557048 5.2707C-0.0771401 5.65314 0.0315796 6.06454 0.339567 6.34486L3.08075 8.8402C3.19761 8.9467 3.25119 9.10003 3.22362 9.24984L2.57694 12.7734C2.5196 13.0836 2.6067 13.3852 2.82164 13.6231C3.15563 13.9939 3.73871 14.1068 4.20492 13.878L7.59309 12.2142C7.7347 12.1449 7.91298 12.1455 8.05429 12.2142L11.4428 13.878C11.6076 13.959 11.7833 14 11.9648 14C12.2959 14 12.6099 13.8625 12.8257 13.6231C13.041 13.3852 13.1278 13.083 13.0704 12.7734L12.4234 9.24984C12.3959 9.09974 12.4494 8.9467 12.5663 8.8402L15.3075 6.34456Z" fill="url(#paint0_linear)"/>
<defs>
<linearGradient id="paint0_linear" x1="0" y1="0" x2="0" y2="14" gradientUnits="userSpaceOnUse">
<stop stop-color="#FFBA10"/>
<stop offset="1" stop-color="#FC7712"/>
</linearGradient>
</defs>
</svg>
