<svg width="60" height="48" viewBox="0 0 60 48" fill="none" xmlns="http://www.w3.org/2000/svg">
<g filter="url(#filter0_d)">
<path fill-rule="evenodd" clip-rule="evenodd" d="M40.8693 27.0838H36.0454C36.3915 26.8475 36.6888 26.6127 36.8962 26.4023C38.1265 25.1658 38.1265 23.1533 36.8962 21.9168C35.7009 20.7124 33.6182 20.7154 32.4244 21.9168C31.7628 22.5801 30.0094 25.2802 30.2519 27.0838H30.1421C30.383 25.2802 28.6297 22.5801 27.9695 21.9168C26.7742 20.7154 24.6916 20.7154 23.4978 21.9168C22.2689 23.1533 22.2689 25.1658 23.4963 26.4023C23.7051 26.6127 24.0024 26.8475 24.3485 27.0838H19.5246C18.6846 27.0838 18 27.7683 18 28.6084V30.8953C18 31.3161 18.3415 31.6576 18.7623 31.6576H28.6723V28.6084H31.7216V31.6576H41.6316C42.0524 31.6576 42.3939 31.3161 42.3939 30.8953V28.6084C42.3939 27.7683 41.7109 27.0838 40.8693 27.0838ZM28.5824 27.0335C28.5824 27.0335 28.5184 27.0838 28.3003 27.0838C27.2468 27.0838 25.2359 25.9891 24.5787 25.3274C23.9399 24.684 23.9399 23.6351 24.5787 22.9917C24.8882 22.6807 25.2984 22.5099 25.7344 22.5099C26.1689 22.5099 26.579 22.6807 26.8885 22.9917C27.9161 24.0254 28.9376 26.666 28.5824 27.0335ZM31.8115 27.0335C31.8115 27.035 31.8756 27.0838 32.0921 27.0838C33.1471 27.0838 35.1581 25.9891 35.8152 25.3274C36.4555 24.684 36.4555 23.6351 35.8152 22.9917C35.1947 22.3681 34.1198 22.3712 33.5054 22.9917C32.4778 24.0254 31.4563 26.666 31.8115 27.0335ZM19.5246 33.1823V42.33C19.5246 43.1716 20.2092 43.8546 21.0492 43.8546H28.6723V33.1823H19.5246ZM31.7216 43.8546V33.1823H40.8693V42.33C40.8693 43.1716 40.1863 43.8546 39.3447 43.8546H31.7216Z" fill="url(#paint0_linear)"/>
</g>
<g filter="url(#filter1_d)">
<path fill-rule="evenodd" clip-rule="evenodd" d="M53 10.1465C53 9.73292 52.6767 9.39143 52.2637 9.36884L9.06832 7.00596C7.94477 6.9445 7 7.839 7 8.96423V8.96423C7 10.0474 7.87806 10.9254 8.96119 10.9254H52.2211C52.6513 10.9254 53 10.5767 53 10.1465V10.1465Z" fill="url(#paint1_linear)"/>
</g>
<defs>
<filter id="filter0_d" x="14" y="17.0146" width="32.3939" height="30.84" filterUnits="userSpaceOnUse" color-interpolation-filters="sRGB">
<feFlood flood-opacity="0" result="BackgroundImageFix"/>
<feColorMatrix in="SourceAlpha" type="matrix" values="0 0 0 0 0 0 0 0 0 0 0 0 0 0 0 0 0 0 127 0" result="hardAlpha"/>
<feOffset/>
<feGaussianBlur stdDeviation="2"/>
<feColorMatrix type="matrix" values="0 0 0 0 0.996078 0 0 0 0 0.690196 0 0 0 0 0.0627451 0 0 0 1 0"/>
<feBlend mode="normal" in2="BackgroundImageFix" result="effect1_dropShadow"/>
<feBlend mode="normal" in="SourceGraphic" in2="effect1_dropShadow" result="shape"/>
</filter>
<filter id="filter1_d" x="0" y="0.00292969" width="60" height="17.9224" filterUnits="userSpaceOnUse" color-interpolation-filters="sRGB">
<feFlood flood-opacity="0" result="BackgroundImageFix"/>
<feColorMatrix in="SourceAlpha" type="matrix" values="0 0 0 0 0 0 0 0 0 0 0 0 0 0 0 0 0 0 127 0" result="hardAlpha"/>
<feOffset/>
<feGaussianBlur stdDeviation="3.5"/>
<feColorMatrix type="matrix" values="0 0 0 0 0.996078 0 0 0 0 0.690196 0 0 0 0 0.0627451 0 0 0 1 0"/>
<feBlend mode="normal" in2="BackgroundImageFix" result="effect1_dropShadow"/>
<feBlend mode="normal" in="SourceGraphic" in2="effect1_dropShadow" result="shape"/>
</filter>
<linearGradient id="paint0_linear" x1="42.3939" y1="21.0146" x2="18" y2="21.0146" gradientUnits="userSpaceOnUse">
<stop stop-color="#FFBA10"/>
<stop offset="1" stop-color="#FC7712"/>
</linearGradient>
<linearGradient id="paint1_linear" x1="7" y1="7" x2="53" y2="7" gradientUnits="userSpaceOnUse">
<stop stop-color="#FFBA10"/>
<stop offset="1" stop-color="#FC7712"/>
</linearGradient>
</defs>
</svg>
