<svg width="18" height="18" viewBox="0 0 18 18" fill="none" xmlns="http://www.w3.org/2000/svg">
<path fill-rule="evenodd" clip-rule="evenodd" d="M16.6531 8.43886L8.6861 0.471048C8.37221 0.157151 7.96095 0 7.54969 0C7.13843 0 6.72677 0.157151 6.41328 0.471048L2.05023 4.83329C1.42243 5.46108 1.42243 6.49852 2.05023 7.12631L2.77336 7.86924H4.44142L2.88446 6.29208C2.77538 6.1826 2.75922 6.04565 2.75922 5.9794C2.75922 5.91314 2.77538 5.78104 2.88446 5.67196L3.46054 5.11365L6.19836 7.86924H8.82467L4.7735 3.79787L7.24711 1.31457C7.35618 1.20549 7.48344 1.18489 7.54969 1.18489C7.61594 1.18489 7.7432 1.19863 7.85228 1.3073L15.8197 9.2739C15.9292 9.38338 15.9457 9.50943 15.9457 9.57608C15.9457 9.64234 15.9175 9.76919 15.808 9.87867L15.3563 10.3194V11.9875L16.6426 10.7129C17.27 10.0839 17.2813 9.06666 16.6531 8.43886ZM1.64665 8.61621H12.915C13.8026 8.61621 14.5023 9.33127 14.5023 10.2188V14.4809H0V10.2188C0 9.33127 0.75909 8.61621 1.64665 8.61621ZM3.12847 12.7025C3.33854 12.9045 3.62335 13.0298 3.93806 13.0298C4.58403 13.0298 5.10759 12.5066 5.10759 11.8598C5.10759 11.2138 4.58403 10.6903 3.93806 10.6903C3.62335 10.6903 3.33854 10.8151 3.12847 11.0171C2.9188 10.8151 2.63358 10.6903 2.31928 10.6903C1.67331 10.6903 1.14974 11.2138 1.14974 11.8598C1.14974 12.5066 1.67371 13.0298 2.31928 13.0298C2.63318 13.0298 2.91839 12.9045 3.12847 12.7025ZM1.64665 18C0.758686 18 0 17.2757 0 16.3881V16.2936H14.5027V16.3881C14.5027 17.2757 13.8026 18 12.915 18H1.64665Z" fill="url(#paint0_linear)"/>
<defs>
<linearGradient id="paint0_linear" x1="0" y1="0" x2="0" y2="18" gradientUnits="userSpaceOnUse">
<stop stop-color="#FFBA10"/>
<stop offset="1" stop-color="#FC7712"/>
</linearGradient>
</defs>
</svg>
