<svg width="48" height="40" viewBox="0 0 48 40" fill="none" xmlns="http://www.w3.org/2000/svg">
<path fill-rule="evenodd" clip-rule="evenodd" d="M38.4 12.7998H45.5997C46.9254 12.7998 47.9999 13.8746 47.9999 15.1999V37.5999C47.9999 38.9255 46.9254 40 45.5997 40H12C10.6743 40 9.59982 38.9255 9.59982 37.5999V27.1999H2.40014C1.07446 27.1999 0 26.1254 0 24.8001V2.40014C0 1.07446 1.07446 0 2.40014 0H35.9999C37.3256 0 38.4 1.07446 38.4 2.40014V12.7998ZM36.8001 6.39988H1.59997V9.59982H36.8001V6.39988ZM2.40014 1.59997H35.9999C36.4419 1.59997 36.8001 1.95812 36.8001 2.40014V4.79991H1.59997V2.40014C1.59997 1.95812 1.95812 1.59997 2.40014 1.59997ZM1.59997 24.8001C1.59997 25.2417 1.95812 25.5999 2.40014 25.5999H9.59982V15.1999C9.59982 13.8746 10.6743 12.7998 12 12.7998H36.8001V11.1998H1.59997V24.8001ZM46.3999 37.5999C46.3999 38.0419 46.0417 38.4 45.5997 38.4H12C11.5579 38.4 11.1998 38.0419 11.1998 37.5999V15.1999C11.1998 14.7583 11.5579 14.4001 12 14.4001H45.5997C46.0417 14.4001 46.3999 14.7583 46.3999 15.1999V37.5999ZM22.4 23.2001C22.4 23.6418 22.0418 23.9999 21.5998 23.9999H15.1999C14.7583 23.9999 14.4001 23.6418 14.4001 23.2001V18.3998C14.4001 17.9582 14.7583 17.6 15.1999 17.6H21.5998C22.0418 17.6 22.4 17.9582 22.4 18.3998V23.2001ZM18.3998 21.5998H16.0001V22.4H18.3998V21.5998ZM19.9998 22.4V21.5998H20.8V22.4H19.9998ZM18.3998 19.9998H20.8V19.2H18.3998V19.9998ZM16.7999 19.2V19.9998H16.0001V19.2H16.7999ZM40 17.6C39.272 17.6011 38.5663 17.8513 37.9998 18.3087C36.6243 17.1994 34.6098 17.4151 33.5001 18.7906C32.3905 20.1661 32.6062 22.181 33.9821 23.2902C35.1543 24.2361 36.8275 24.2361 37.9998 23.2902C39.3752 24.4002 41.3901 24.1849 42.4997 22.8094C43.6094 21.4339 43.394 19.4194 42.0189 18.3098C41.4473 17.8483 40.7342 17.5978 40 17.6ZM35.9999 22.4C35.1162 22.4 34.3999 21.6836 34.3999 20.8C34.3999 19.9163 35.1162 19.2 35.9999 19.2C36.5335 19.1953 37.0333 19.4608 37.3278 19.9057C37.6896 20.4448 37.6896 21.149 37.3278 21.688C37.0337 22.1345 36.5346 22.4022 35.9999 22.4ZM38.96 22.0169C39.2489 22.2663 39.6184 22.4022 40 22.4C40.8837 22.4 41.6 21.6836 41.6 20.8C41.6 19.9163 40.8837 19.2 40 19.2C39.618 19.1978 39.2485 19.3344 38.96 19.5838C38.9681 19.6029 38.9734 19.6231 38.9786 19.6433L38.9787 19.6433L38.9787 19.6433L38.9787 19.6433L38.9787 19.6434C38.9831 19.6602 38.9875 19.6772 38.9937 19.6937C39.0405 19.82 39.0797 19.9493 39.1105 20.0807C39.1143 20.0979 39.1184 20.115 39.1225 20.1321L39.1226 20.1325L39.1227 20.1327C39.1316 20.1702 39.1406 20.2076 39.1471 20.2455C39.2207 20.6121 39.2207 20.99 39.1471 21.3566C39.1399 21.3976 39.1305 21.4376 39.1211 21.4773L39.1211 21.4775L39.1119 21.5167C39.0801 21.6525 39.0394 21.7862 38.9904 21.9166C38.9848 21.9316 38.9809 21.947 38.9769 21.9623L38.9768 21.9625L38.9768 21.9625C38.9721 21.9807 38.9673 21.999 38.96 22.0169ZM16.0001 31.9998H22.4C22.842 31.9998 23.1998 32.3579 23.1998 32.7999C23.1998 33.2416 22.8416 33.5998 22.4 33.5998H16.0001C15.5581 33.5998 15.1999 33.2416 15.1999 32.7999C15.1999 32.3579 15.5581 31.9998 16.0001 31.9998ZM31.9998 31.9998H25.5999C25.1582 31.9998 24.8001 32.3579 24.8001 32.7999C24.8001 33.2416 25.1582 33.5998 25.5999 33.5998H31.9998C32.4418 33.5998 32.7999 33.2416 32.7999 32.7999C32.7999 32.3579 32.4418 31.9998 31.9998 31.9998ZM35.2001 31.9998H41.6C42.0416 31.9998 42.3998 32.3579 42.3998 32.7999C42.3998 33.2416 42.0416 33.5998 41.6 33.5998H35.2001C34.7581 33.5998 34.3999 33.2416 34.3999 32.7999C34.3999 32.3579 34.7581 31.9998 35.2001 31.9998Z" fill="url(#paint0_linear)"/>
<defs>
<linearGradient id="paint0_linear" x1="51.9963" y1="40.5527" x2="51.9963" y2="-6.108" gradientUnits="userSpaceOnUse">
<stop stop-color="#E93E3A"/>
<stop offset="0.355" stop-color="#ED683C"/>
<stop offset="0.705" stop-color="#F3903F"/>
<stop offset="1" stop-color="#FDC70C"/>
</linearGradient>
</defs>
</svg>
