<svg width="20" height="18" viewBox="0 0 20 18" fill="none" xmlns="http://www.w3.org/2000/svg">
<path fill-rule="evenodd" clip-rule="evenodd" d="M18.6094 8.25093C18.9637 7.93057 19.0887 7.46039 18.9359 7.02332C18.7827 6.58626 18.3837 6.27426 17.8936 6.20804L13.5353 5.62049C13.3496 5.59541 13.1892 5.4874 13.1064 5.33123L11.1579 1.66747C10.9391 1.25582 10.495 1 10.0002 1C9.50567 1 9.06162 1.25582 8.84284 1.66747L6.89401 5.33156C6.81111 5.48773 6.65036 5.59574 6.46474 5.62083L2.10644 6.20838C1.61662 6.27425 1.21726 6.58659 1.06408 7.02366C0.91126 7.46073 1.03633 7.9309 1.39063 8.25126L4.54402 11.1031C4.67846 11.2248 4.74009 11.4 4.70837 11.5712L3.96445 15.5982C3.89849 15.9526 3.99869 16.2974 4.24594 16.5693C4.63016 16.993 5.30092 17.1221 5.83723 16.8606L9.73491 14.9591C9.89782 14.8799 10.1029 14.8805 10.2655 14.9591L14.1635 16.8606C14.3531 16.9532 14.5553 17 14.764 17C15.1449 17 15.5061 16.8428 15.7544 16.5693C16.002 16.2974 16.1019 15.952 16.0359 15.5982L15.2916 11.5712C15.2599 11.3997 15.3215 11.2248 15.456 11.1031L18.6094 8.25093Z" stroke="url(#paint0_linear)" stroke-width="2"/>
<defs>
<linearGradient id="paint0_linear" x1="1" y1="1" x2="1" y2="17" gradientUnits="userSpaceOnUse">
<stop stop-color="#FFBA10"/>
<stop offset="1" stop-color="#FC7712"/>
</linearGradient>
</defs>
</svg>
