<svg width="14" height="14" viewBox="0 0 14 14" fill="none" xmlns="http://www.w3.org/2000/svg">
<path fill-rule="evenodd" clip-rule="evenodd" d="M1.74998 2.18754V0.437503C1.74998 0.195654 1.94564 0 2.18754 0C2.42933 0 2.62499 0.195654 2.62499 0.437503V2.18754C2.62499 2.42933 2.42933 2.62499 2.18754 2.62499C1.94564 2.62502 1.74998 2.42933 1.74998 2.18754ZM9.18756 2.62502C9.42929 2.62502 9.62506 2.42936 9.62506 2.18757V0.437503C9.62506 0.195654 9.42929 0 9.18756 0C8.94571 0 8.74991 0.195654 8.74991 0.437503V2.18754C8.74991 2.42933 8.94571 2.62502 9.18756 2.62502ZM10.4999 14C12.4329 14 13.9999 12.4329 13.9999 10.4999C13.9999 8.5671 12.4329 6.99999 10.4999 6.99999C8.56715 6.99999 6.99999 8.56712 6.99999 10.4999C6.99999 12.4329 8.56718 14 10.4999 14ZM13.1251 10.4999C13.1251 9.05258 11.9475 7.87493 10.5 7.87493C9.05252 7.87493 7.87502 9.05255 7.87502 10.4999C7.87502 11.9475 9.05252 13.125 10.5 13.125C11.9475 13.125 13.1251 11.9475 13.1251 10.4999ZM1.74998 5.25H3.50002V6.99999H1.74998V5.25ZM1.74998 9.625H3.50002V7.87493H1.74998V9.625ZM6.12504 6.99999H4.37497V5.25H6.12504V6.99999ZM4.37497 9.625H6.12504V7.87493H4.37497V9.625ZM0.875034 4.37497V10.4129C0.875034 10.4589 0.908418 10.4999 0.948062 10.4999H6.12504V11.3751H0.948062C0.424317 11.3751 0 10.9427 0 10.4129V2.71221C0 2.1807 0.424317 1.74998 0.948062 1.74998H1.31254V2.18757C1.31254 2.66945 1.70477 3.06255 2.18757 3.06255C2.67026 3.06255 3.06246 2.66945 3.06246 2.18757V1.74998H8.31258V2.18757C8.31258 2.66945 8.70484 3.06255 9.18759 3.06255C9.67019 3.06255 10.0625 2.66945 10.0625 2.18757V1.74998H10.4274C10.9511 1.74998 11.375 2.1807 11.375 2.71221V6.12501H10.5V4.37497H0.875034ZM8.74991 6.99999V5.25H7.00001V6.99999H8.74991ZM10.4999 10.4999H11.8125C12.0543 10.4999 12.25 10.6957 12.25 10.9375C12.25 11.1793 12.0543 11.375 11.8125 11.375H10.0624C9.8206 11.375 9.62506 11.1793 9.62506 10.9375V9.18736C9.62506 8.94565 9.8206 8.75 10.0624 8.75C10.3043 8.75 10.4999 8.94565 10.4999 9.18736V10.4999Z" fill="#C5C5C5"/>
</svg>
