<svg width="20" height="20" viewBox="0 0 20 20" fill="none" xmlns="http://www.w3.org/2000/svg">
<path fill-rule="evenodd" clip-rule="evenodd" d="M2.49593 3.12V0.623992C2.49593 0.279054 2.77498 0 3.12 0C3.46486 0 3.74391 0.279054 3.74391 0.623992V3.12C3.74391 3.46486 3.46486 3.74391 3.12 3.74391C2.77498 3.74395 2.49593 3.46486 2.49593 3.12ZM13.1038 3.74395C13.4486 3.74395 13.7278 3.4649 13.7278 3.12004V0.623992C13.7278 0.279054 13.4486 0 13.1038 0C12.7589 0 12.4796 0.279054 12.4796 0.623992V3.12C12.4796 3.46486 12.7589 3.74395 13.1038 3.74395ZM14.9756 19.9676C17.7325 19.9676 19.9675 17.7326 19.9675 14.9756C19.9675 12.2189 17.7325 9.98379 14.9756 9.98379C12.219 9.98379 9.98379 12.2189 9.98379 14.9756C9.98379 17.7326 12.219 19.9676 14.9756 19.9676ZM18.7197 14.9756C18.7197 12.9113 17.0403 11.2317 14.9757 11.2317C12.9112 11.2317 11.2318 12.9113 11.2318 14.9756C11.2318 17.0402 12.9112 18.7196 14.9757 18.7196C17.0403 18.7196 18.7197 17.0402 18.7197 14.9756ZM2.49593 7.48786H4.99193V9.98379H2.49593V7.48786ZM2.49593 13.7277H4.99193V11.2317H2.49593V13.7277ZM8.73588 9.98379H6.23984V7.48786H8.73588V9.98379ZM6.23984 13.7277H8.73588V11.2317H6.23984V13.7277ZM1.24802 6.23984V14.8515C1.24802 14.9172 1.29564 14.9756 1.35218 14.9756H8.73588V16.2238H1.35218C0.605185 16.2238 0 15.6071 0 14.8515V3.86831C0 3.11025 0.605185 2.49593 1.35218 2.49593H1.87202V3.12004C1.87202 3.80733 2.43144 4.36798 3.12004 4.36798C3.80848 4.36798 4.36786 3.80733 4.36786 3.12004V2.49593H11.8559V3.12004C11.8559 3.80733 12.4153 4.36798 13.1039 4.36798C13.7922 4.36798 14.3517 3.80733 14.3517 3.12004V2.49593H14.8721C15.6191 2.49593 16.2237 3.11025 16.2237 3.86831V8.73584H14.9757V6.23984H1.24802ZM12.4796 9.98379V7.48786H9.98383V9.98379H12.4796ZM14.9756 14.9756H16.8477C17.1926 14.9756 17.4716 15.2548 17.4716 15.5998C17.4716 15.9445 17.1926 16.2237 16.8477 16.2237H14.3516C14.0067 16.2237 13.7278 15.9445 13.7278 15.5998V13.1035C13.7278 12.7588 14.0067 12.4798 14.3516 12.4798C14.6966 12.4798 14.9756 12.7588 14.9756 13.1035V14.9756Z" fill="url(#paint0_linear)"/>
<defs>
<linearGradient id="paint0_linear" x1="0" y1="0" x2="0" y2="19.9676" gradientUnits="userSpaceOnUse">
<stop stop-color="#FAD961"/>
<stop offset="1" stop-color="#F76B1C"/>
</linearGradient>
</defs>
</svg>
