<svg width="19" height="18" viewBox="0 0 19 18" fill="none" xmlns="http://www.w3.org/2000/svg">
<path fill-rule="evenodd" clip-rule="evenodd" d="M18.775 14.2055C18.8132 14.4979 18.7241 14.7521 18.508 14.9682L15.972 17.485C15.8576 17.6122 15.7083 17.7203 15.524 17.8092C15.3397 17.8982 15.1585 17.9554 14.9806 17.9808C14.9679 17.9808 14.9297 17.9841 14.8661 17.9904C14.8026 17.9968 14.72 18 14.6183 18C14.3767 18 13.9858 17.9587 13.4456 17.876C12.9053 17.7934 12.2443 17.5899 11.4626 17.2659C10.6807 16.9417 9.79408 16.4554 8.80259 15.8072C7.8111 15.159 6.75598 14.2691 5.63734 13.1377C4.74751 12.2606 4.01022 11.4216 3.42548 10.6208C2.84073 9.8199 2.3704 9.07943 2.01446 8.39935C1.6585 7.71927 1.39155 7.10274 1.21359 6.54978C1.03562 5.99681 0.914859 5.52012 0.8513 5.11969C0.78774 4.71927 0.762317 4.40465 0.775029 4.17584C0.78774 3.94703 0.794096 3.81991 0.794096 3.79448C0.81952 3.61652 0.876723 3.43538 0.965706 3.25105C1.05469 3.06673 1.16274 2.91737 1.28986 2.80296L3.82587 0.266949C4.00384 0.0889829 4.20723 0 4.43604 0C4.60129 0 4.74748 0.0476694 4.8746 0.143008C5.00172 0.238347 5.10977 0.355932 5.19875 0.495762L7.239 4.36652C7.35341 4.56991 7.38519 4.79236 7.33434 5.03389C7.28349 5.27541 7.17544 5.4788 7.01019 5.64406L6.07587 6.57838C6.05044 6.6038 6.0282 6.64512 6.00913 6.70232C5.99006 6.75952 5.98053 6.80719 5.98053 6.84533C6.03138 7.11228 6.14578 7.41736 6.32375 7.76058C6.47629 8.06566 6.71146 8.43749 7.02925 8.87604C7.34705 9.3146 7.79832 9.81987 8.38307 10.3919C8.9551 10.9767 9.46357 11.4311 9.90849 11.7553C10.3533 12.0793 10.7253 12.3178 11.024 12.4703C11.3227 12.6229 11.5515 12.715 11.7104 12.7467L11.9487 12.7944C11.9741 12.7944 12.0155 12.7848 12.0726 12.7658C12.1299 12.7467 12.1712 12.7245 12.1966 12.699L13.2835 11.5931C13.5124 11.3897 13.7792 11.2881 14.0843 11.2881C14.3005 11.2881 14.472 11.3262 14.5991 11.4025H14.6182L18.2982 13.5762C18.5653 13.7416 18.7241 13.9512 18.775 14.2055Z" fill="white"/>
</svg>
