<svg width="12" height="10" viewBox="0 0 12 10" fill="none" xmlns="http://www.w3.org/2000/svg">
<path fill-rule="evenodd" clip-rule="evenodd" d="M10.8278 0.131487C10.4624 -0.109499 9.96891 -0.00939471 9.72582 0.351296L4.50289 8.13442L1.22587 5.68868C0.855379 5.45452 0.364307 5.5611 0.126121 5.92442C-0.110839 6.29036 -0.00425956 6.77601 0.365007 7.01034L4.30181 9.87627C4.36638 9.91687 4.43516 9.94697 4.50534 9.96745C4.50569 9.96745 4.50604 9.9678 4.50622 9.9678C4.53947 9.97742 4.57324 9.98425 4.60702 9.98967C4.61087 9.99002 4.61472 9.99142 4.61857 9.99212C4.65602 9.9972 4.69365 10 4.7311 10C4.76365 10 4.79568 9.9979 4.82788 9.99422C4.85343 9.99107 4.87898 9.98582 4.90418 9.9804C4.91031 9.979 4.91643 9.97847 4.92238 9.97707C5.01549 9.9545 5.10439 9.91512 5.18437 9.86052C5.1849 9.86017 5.18542 9.85982 5.18577 9.85947C5.2087 9.84407 5.2304 9.82657 5.25175 9.80819C5.2556 9.80452 5.25997 9.80207 5.26382 9.79857C5.28063 9.78334 5.29603 9.76689 5.31125 9.75044C5.31913 9.74221 5.32753 9.73469 5.33488 9.72611C5.3459 9.71351 5.3557 9.69951 5.3662 9.68604C5.37583 9.67344 5.38598 9.66154 5.39508 9.64823L11.051 1.22003C11.2944 0.857944 11.1943 0.371072 10.8278 0.131487Z" fill="#CACACA"/>
</svg>
