<svg width="20" height="20" viewBox="0 0 20 20" fill="none" xmlns="http://www.w3.org/2000/svg">
<circle cx="10" cy="10" r="9" stroke="#FF2E2E" stroke-width="2"/>
<path d="M7.132 14L9.304 9.98L7.264 6.176H9.232L9.916 7.652C10.004 7.836 10.092 8.032 10.18 8.24C10.268 8.44 10.368 8.664 10.48 8.912H10.528C10.616 8.664 10.7 8.44 10.78 8.24C10.868 8.032 10.952 7.836 11.032 7.652L11.656 6.176H13.54L11.512 10.064L13.672 14H11.704L10.924 12.404C10.828 12.196 10.732 11.992 10.636 11.792C10.548 11.584 10.448 11.36 10.336 11.12H10.288C10.2 11.36 10.112 11.584 10.024 11.792C9.936 11.992 9.848 12.196 9.76 12.404L9.028 14H7.132Z" fill="#FF2E2E"/>
</svg>
