<svg width="21" height="24" viewBox="0 0 21 24" fill="none" xmlns="http://www.w3.org/2000/svg">
<path fill-rule="evenodd" clip-rule="evenodd" d="M20.0323 15.8228C20.0323 16.319 19.6319 16.7212 19.138 16.7212C18.644 16.7212 18.2437 16.319 18.2437 15.8228V12.4985C18.2437 11.5077 17.4413 10.7017 16.4551 10.7017H3.57719C2.59096 10.7017 1.78859 11.5077 1.78859 12.4985V19.8657C1.78859 20.8565 2.59096 21.6626 3.57719 21.6626H16.4551C17.4413 21.6626 18.2437 20.8565 18.2437 19.8657C18.2437 19.3695 18.644 18.9673 19.138 18.9673C19.6319 18.9673 20.0323 19.3695 20.0323 19.8657C20.0323 21.8473 18.4275 23.4595 16.4551 23.4595H3.57719C1.60473 23.4595 0 21.8473 0 19.8657V12.4985C0 10.5169 1.60473 8.90479 3.57719 8.90479H4.64869V5.73627C4.64869 2.82663 7.05578 0.459473 10.0145 0.459473C12.9732 0.459473 15.3803 2.82663 15.3803 5.73627V8.90479H16.4551C18.4275 8.90479 20.0323 10.5169 20.0323 12.4985V15.8228ZM6.43729 5.73627V8.90479H13.5917V5.73627C13.5917 3.81743 11.9869 2.25635 10.0145 2.25635C8.04201 2.25635 6.43729 3.81743 6.43729 5.73627ZM15.5806 16.0401C15.5806 16.4499 15.2485 16.7821 14.8387 16.7821C14.429 16.7821 14.0968 16.4499 14.0968 16.0401C14.0968 15.6304 14.429 15.2982 14.8387 15.2982C15.2485 15.2982 15.5806 15.6304 15.5806 16.0401ZM8.16129 16.7821C8.57105 16.7821 8.90323 16.4499 8.90323 16.0401C8.90323 15.6304 8.57105 15.2982 8.16129 15.2982C7.75153 15.2982 7.41935 15.6304 7.41935 16.0401C7.41935 16.4499 7.75153 16.7821 8.16129 16.7821ZM5.93548 16.0401C5.93548 16.4499 5.60331 16.7821 5.19355 16.7821C4.78379 16.7821 4.45161 16.4499 4.45161 16.0401C4.45161 15.6304 4.78379 15.2982 5.19355 15.2982C5.60331 15.2982 5.93548 15.6304 5.93548 16.0401ZM11.871 16.7821C12.2807 16.7821 12.6129 16.4499 12.6129 16.0401C12.6129 15.6304 12.2807 15.2982 11.871 15.2982C11.4612 15.2982 11.129 15.6304 11.129 16.0401C11.129 16.4499 11.4612 16.7821 11.871 16.7821Z" fill="#FF2E2E"/>
</svg>
