<svg width="47" height="42" viewBox="0 0 47 42" fill="none" xmlns="http://www.w3.org/2000/svg">
<path fill-rule="evenodd" clip-rule="evenodd" d="M1.55553 0H45.1111C45.9702 0 46.6666 0.69641 46.6666 1.55553V10.8887C46.6666 11.7478 45.9702 12.4442 45.1111 12.4442V39.6665C45.1111 40.9554 44.0664 42 42.7776 42H3.889C2.60014 42 1.55553 40.9554 1.55553 39.6665V12.4442C0.69641 12.4442 0 11.7478 0 10.8887V1.55553C0 0.69641 0.69641 0 1.55553 0ZM42.7776 40.4445C43.2073 40.4445 43.5555 40.0963 43.5555 39.6665V12.4442H33.7634C34.9764 16.4717 33.746 20.8371 30.6082 23.6381L33.1008 30.1411C33.1443 30.2543 33.1606 30.3761 33.1485 30.4968C33.1058 30.924 32.7249 31.2363 32.2973 31.1935L29.2243 30.8902L27.1383 33.1688C26.9909 33.3301 26.7826 33.422 26.5643 33.4216C26.5159 33.4216 26.4675 33.417 26.4198 33.4077C26.1545 33.3579 25.9345 33.1742 25.838 32.9225L23.349 26.4444H23.318L20.836 32.9217C20.7392 33.1735 20.5192 33.3572 20.2543 33.407C20.2066 33.4163 20.1581 33.4209 20.1094 33.4209C19.8911 33.4209 19.6828 33.3294 19.5354 33.1681L17.4494 30.8895L14.3765 31.1928C14.2558 31.2049 14.134 31.1886 14.0208 31.1451C13.6199 30.9913 13.4191 30.5413 13.5729 30.1404L16.0619 23.6374C12.9231 20.8375 11.6912 16.4721 12.9032 12.4442H3.11106V39.6665C3.11106 40.0963 3.45926 40.4445 3.889 40.4445H42.7776ZM32.6665 15.5556C32.6736 18.3762 31.3979 21.0468 29.1994 22.8138C27.6766 24.0525 25.7985 24.7735 23.8382 24.8724C23.5053 24.8856 23.1489 24.8856 22.8323 24.8724C17.8806 24.6065 14.0015 20.5145 14.0001 15.5556C14.0001 10.4009 18.1786 6.22212 23.3333 6.22212C28.488 6.22212 32.6665 10.4009 32.6665 15.5556ZM29.323 24.6499L29.3222 24.6478H29.3261L29.323 24.6499ZM29.323 24.6499L31.1889 29.5212L28.9822 29.3026C28.7383 29.2791 28.4973 29.3713 28.3314 29.5515L26.8331 31.1889L24.9664 26.3208C26.5236 26.0896 28.0107 25.5192 29.323 24.6499ZM17.3444 24.6424C18.656 25.5126 20.1428 26.084 21.7001 26.3162L19.8334 31.1889L18.3306 29.5554C18.1647 29.3753 17.9237 29.283 17.6798 29.3065L15.473 29.5251L17.3444 24.6424ZM33.1567 10.8887H45.1111V1.55553H1.55553V10.8887H13.5099C14.5851 8.61469 16.4155 6.78394 18.6898 5.70907C24.1152 3.14453 30.5922 5.4634 33.1567 10.8887ZM14.7777 15.5556C14.7777 10.8303 18.6083 7.00006 23.3333 7.00006C28.0561 7.0054 31.8832 10.8328 31.8889 15.5556C31.8889 20.2806 28.0583 24.1109 23.3333 24.1109C18.6083 24.1109 14.7777 20.2806 14.7777 15.5556ZM16.3332 15.5556C16.3332 19.4215 19.4674 22.5557 23.3333 22.5557C27.1974 22.5511 30.3291 19.4197 30.3334 15.5556C30.3334 11.6894 27.1992 8.55559 23.3333 8.55559C19.4674 8.55559 16.3332 11.6894 16.3332 15.5556ZM25.0287 13.2222L24.0731 10.282C23.9389 9.874 23.4992 9.65219 23.0912 9.78606C22.8566 9.86332 22.6725 10.0474 22.5952 10.282L21.6378 13.2222H18.546C18.1166 13.2222 17.7684 13.5704 17.7684 13.9998C17.7681 14.249 17.8873 14.4829 18.0889 14.6292L20.59 16.4468L19.6351 19.3884C19.503 19.7971 19.727 20.2358 20.1357 20.3679C20.3721 20.4444 20.631 20.4035 20.8321 20.2571L23.3333 18.4396L25.8348 20.2571C26.1823 20.5096 26.6687 20.4323 26.9211 20.0848C27.0671 19.8836 27.1084 19.6248 27.0318 19.3884L26.0766 16.4468L28.5781 14.6292C28.9256 14.3768 29.0025 13.8905 28.7501 13.543C28.6037 13.3414 28.3698 13.2222 28.1206 13.2222H25.0287ZM24.4221 16.3895L24.8112 17.5918L23.789 16.8488C23.5163 16.6508 23.1471 16.6508 22.8744 16.8488L21.8525 17.5918L22.2413 16.3895C22.3453 16.0691 22.2314 15.7187 21.959 15.5204L20.94 14.7777H22.2032C22.54 14.7777 22.8388 14.5609 22.9427 14.2401L23.3319 13.0385L23.7207 14.2401C23.8246 14.5609 24.1233 14.7777 24.4605 14.7777H25.7234L24.7015 15.5204C24.4302 15.7194 24.3177 16.0698 24.4221 16.3895Z" fill="url(#paint0_linear)"/>
<defs>
<linearGradient id="paint0_linear" x1="51.0835" y1="42.9722" x2="51.0835" y2="-6.97823" gradientUnits="userSpaceOnUse">
<stop stop-color="#E93E3A"/>
<stop offset="0.355" stop-color="#ED683C"/>
<stop offset="0.705" stop-color="#F3903F"/>
<stop offset="1" stop-color="#FDC70C"/>
</linearGradient>
</defs>
</svg>
