<svg width="32" height="36" viewBox="0 0 32 36" fill="none" xmlns="http://www.w3.org/2000/svg">
<path fill-rule="evenodd" clip-rule="evenodd" d="M31.4596 10.6827C31.4596 10.6868 31.459 10.6906 31.4584 10.6943L31.4584 10.6943C31.4579 10.6977 31.4574 10.7009 31.4574 10.7042C31.4574 10.7076 31.4578 10.7112 31.4583 10.7147L31.4583 10.7147C31.4591 10.7206 31.4599 10.7264 31.4585 10.7313V15.6434C31.4585 16.0512 31.228 16.424 30.8654 16.6082L16.2162 23.9842C16.2077 23.9884 16.1996 23.9894 16.1911 23.9905C16.1837 23.9914 16.176 23.9923 16.1676 23.9955C16.0286 24.0576 15.8806 24.0994 15.7292 24.0994C15.5779 24.0994 15.4299 24.0576 15.2909 23.9955C15.2829 23.9923 15.2752 23.9914 15.2676 23.9904H15.2676C15.2591 23.9894 15.2507 23.9884 15.2423 23.9842L0.594238 16.6082C0.230465 16.4252 0 16.0523 0 15.6434V10.7313C0 10.7268 0.000847298 10.7223 0.0016946 10.7178C0.00254189 10.7132 0.00338919 10.7087 0.00338919 10.7042C0.00338919 10.7001 0.00278 10.6963 0.00219425 10.6926C0.00165194 10.6893 0.00112973 10.686 0.00112973 10.6827C0.00177829 10.6691 0.00540549 10.6566 0.00901884 10.6442L0.00901935 10.6442L0.00902129 10.6441C0.0117012 10.6349 0.0143732 10.6257 0.0158162 10.6161C0.0225946 10.5426 0.0350217 10.4726 0.0576163 10.4037C0.0667887 10.3731 0.0787194 10.3444 0.09092 10.315L0.0909221 10.315L0.0948974 10.3054C0.120881 10.2455 0.152514 10.1879 0.188665 10.1337L0.199193 10.1178C0.215511 10.093 0.231234 10.0691 0.2508 10.0467C0.29373 9.99473 0.343438 9.94954 0.396535 9.90435C0.40611 9.89652 0.415181 9.88835 0.424267 9.88017L0.42428 9.88015L0.424285 9.88015C0.438778 9.8671 0.453306 9.85402 0.469968 9.84221C0.473059 9.84015 0.475445 9.83762 0.47777 9.83516C0.480542 9.83222 0.483227 9.82937 0.486914 9.82753C0.567125 9.77556 0.651855 9.73489 0.737714 9.70552C0.738844 9.70552 0.739974 9.70495 0.741103 9.70439C0.742233 9.70382 0.743363 9.70326 0.744493 9.70326L3.46149 8.80964C3.58802 8.9486 3.71342 9.08191 3.83205 9.20053C5.07249 10.4421 7.17153 11.4769 9.11919 12.2474L6.80211 13.1885V18.5208L10.0105 20.1386V14.5679L13.6867 12.6259C12.7422 12.3717 6.88458 10.7268 4.59687 8.43683C3.9292 7.77029 3.04914 6.73546 3.10563 5.46225C3.16211 4.19029 4.04991 3.44695 4.765 2.84822L4.7652 2.84805L4.84251 2.78295L4.84251 2.78294L4.84253 2.78292C5.02342 2.63077 5.21369 2.47073 5.39446 2.28996C5.58914 2.09529 5.75978 1.89059 5.92147 1.69663L5.95142 1.6607L5.95571 1.65559C6.54279 0.955606 7.34425 0 8.68198 0C9.90548 0 10.8985 0.851817 11.5379 1.4935C13.8313 3.78573 15.4762 9.65016 15.7292 10.5867C15.9834 9.64677 17.6272 3.78573 19.9194 1.4935C20.5588 0.852947 21.5519 0.00112973 22.7765 0.00112973C24.1131 0.00112973 24.9132 0.955149 25.5002 1.65497L25.5059 1.66183L25.5385 1.7009C25.7004 1.89492 25.8703 2.09853 26.064 2.29222C26.2717 2.49653 26.4872 2.6763 26.6905 2.84593L26.6944 2.84918C27.4084 3.44681 28.2964 4.1913 28.3529 5.46225C28.4105 6.73658 27.5304 7.77029 26.8616 8.43683C24.575 10.7257 18.7242 12.3706 17.7752 12.6259L21.4491 14.5679V20.1386L24.6575 18.5208V13.1885L22.3427 12.2485C24.2881 11.4792 26.3849 10.4444 27.6276 9.20166C27.7462 9.08191 27.8727 8.94973 27.9981 8.81077L30.7162 9.70439C30.7185 9.70552 30.7208 9.70778 30.723 9.70778C30.8111 9.73715 30.8959 9.77669 30.9738 9.82866C30.9769 9.83072 30.9793 9.83325 30.9816 9.83571C30.9844 9.83865 30.9871 9.8415 30.9908 9.84334C31.008 9.85535 31.0238 9.86986 31.0394 9.8842C31.0473 9.89145 31.0551 9.89865 31.0631 9.90548C31.1173 9.95067 31.167 9.99586 31.2099 10.049C31.2253 10.0665 31.2378 10.085 31.2506 10.1039C31.2575 10.1141 31.2645 10.1245 31.2721 10.1348C31.3082 10.189 31.3399 10.2455 31.3658 10.3065C31.3794 10.3382 31.3918 10.3698 31.4031 10.4037C31.4246 10.4726 31.4381 10.5438 31.4461 10.6161C31.4471 10.6266 31.4499 10.637 31.4527 10.6473C31.4559 10.659 31.459 10.6707 31.4596 10.6827ZM24.2658 2.7028C23.4047 1.67462 22.7804 0.929252 21.0683 2.64131C18.9569 4.75165 17.2781 11.0815 17.2781 11.0815C17.2781 11.0815 23.608 9.40162 25.7172 7.29128C27.4295 5.57894 26.6844 4.95477 25.6568 4.09404L25.6568 4.09403C25.418 3.89398 25.1639 3.68114 24.9219 3.4389C24.6792 3.19649 24.4661 2.942 24.2658 2.70282L24.2658 2.7028ZM6.54114 3.43777C6.78354 3.19559 6.99649 2.94129 7.19665 2.70227C8.05719 1.67465 8.68143 0.929213 10.3935 2.64131C12.505 4.75278 14.1838 11.0815 14.1838 11.0815C14.1838 11.0815 7.85389 9.40275 5.74355 7.29241C4.03164 5.5805 4.77747 4.95547 5.80519 4.0942C6.04438 3.89375 6.29884 3.6805 6.54114 3.43777ZM16.5133 5.03747L16.0682 4.89173C15.8501 4.82056 15.6129 4.82056 15.3926 4.89173L14.9486 5.03747C15.2378 5.70175 15.4999 6.36716 15.7292 6.99981C15.9608 6.36716 16.2252 5.70175 16.5133 5.03747ZM27.7846 26.7102L16.8127 33.0446V24.8699L16.4624 25.045C16.2218 25.1354 15.9721 25.1817 15.7315 25.1817C15.4943 25.1817 15.2525 25.1365 15.0096 25.0484L14.9509 25.0405L14.7611 24.9524L14.6492 24.8959V33.0446L3.67727 26.7102V19.3715L1.51497 18.2836V27.335C1.51497 27.7213 1.72171 28.0783 2.05611 28.2704L15.1904 35.8554C15.3564 35.9514 15.544 36 15.7315 36C15.919 36 16.1054 35.9526 16.2726 35.8554L29.4058 28.2704C29.7413 28.0783 29.9469 27.7213 29.9469 27.335V18.2813L27.7846 19.3647V26.7102Z" fill="white" fill-opacity="0.7"/>
</svg>
