<svg width="72" height="72" viewBox="0 0 72 72" fill="none" xmlns="http://www.w3.org/2000/svg">
<path d="M61.0681 44.3961L61.542 44.5556L61.542 44.5556L61.0681 44.3961ZM44.4291 10.8756L44.5886 10.4017L44.4291 10.8756ZM60.4347 44.7105L60.2753 45.1844L60.2753 45.1844L60.4347 44.7105ZM60.1203 44.0772L59.6465 43.9177L59.6465 43.9177L60.1203 44.0772ZM44.1102 11.8234L43.9507 12.2973L44.1102 11.8234ZM40.3922 10.8734L40.3051 11.3658L40.3922 10.8734ZM40.9716 10.4682L41.464 10.5552L40.9716 10.4682ZM11.8555 27.8344L12.3294 27.9939L11.8555 27.8344ZM11.2221 28.1488L11.0627 28.6227L11.0627 28.6227L11.2221 28.1488ZM10.9077 27.5154L10.4339 27.3559L10.9077 27.5154ZM40.5664 9.8887L40.6535 9.39634L40.6535 9.39634L40.5664 9.8887ZM61.0815 44.4009L61.5554 44.5604L61.0815 44.4009ZM60.7671 43.7675L60.6076 44.2414L60.7671 43.7675ZM59.3431 48.4354L58.9019 48.2003L59.3431 48.4354ZM58.6667 48.6415L58.9019 48.2003L58.6667 48.6415ZM58.4606 47.9651L58.0193 47.73L58.4606 47.9651ZM60.1337 44.0819L60.6076 44.2414L60.1337 44.0819ZM11.869 27.839L11.3951 27.6797L11.869 27.839ZM11.5544 27.2057L11.3951 27.6797L11.3951 27.6797L11.5544 27.2057ZM11.5366 28.902L12.017 29.0407L11.5366 28.902ZM10.9175 29.2435L11.0563 28.7632L11.0563 28.7632L10.9175 29.2435ZM10.5759 28.6244L10.0956 28.4856L10.0956 28.4856L10.5759 28.6244ZM10.9211 27.5204L10.4472 27.361L10.9211 27.5204ZM61.542 44.5556C66.2919 30.4418 58.702 15.1514 44.5886 10.4017L44.2697 11.3495C57.8595 15.923 65.168 30.6463 60.5942 44.2366L61.542 44.5556ZM60.2753 45.1844C60.7987 45.3606 61.3658 45.079 61.542 44.5556L60.5942 44.2366L60.5942 44.2366L60.2753 45.1844ZM59.6465 43.9177C59.4703 44.4411 59.7518 45.0082 60.2753 45.1844L60.5942 44.2366L60.5942 44.2366L59.6465 43.9177ZM43.9507 12.2973C57.0171 16.6946 64.0441 30.8507 59.6465 43.9177L60.5942 44.2366C65.168 30.6463 57.8595 15.923 44.2697 11.3495L43.9507 12.2973ZM43.3219 11.0306C43.1457 11.554 43.4273 12.1211 43.9507 12.2973L44.2697 11.3495L43.3219 11.0306ZM44.5886 10.4017C44.0652 10.2256 43.4981 10.5071 43.3219 11.0306L44.2697 11.3495L44.5886 10.4017ZM40.3051 11.3658C40.8489 11.462 41.3678 11.0991 41.464 10.5552L40.4793 10.3811L40.3051 11.3658ZM12.3294 27.9939C16.3201 16.1361 28.3486 9.25071 40.3051 11.3658L40.4793 10.3811C28.0428 8.1811 15.5324 15.3413 11.3816 27.6749L12.3294 27.9939ZM11.0627 28.6227C11.5861 28.7988 12.1532 28.5173 12.3294 27.9939L11.3816 27.6749L11.3816 27.6749L11.0627 28.6227ZM10.4339 27.3559C10.2577 27.8794 10.5392 28.4465 11.0627 28.6227L11.3816 27.6749L11.3816 27.6749L10.4339 27.3559ZM40.6535 9.39634C27.7372 7.1115 14.7448 14.5464 10.4339 27.3559L11.3816 27.6749C15.5324 15.3413 28.0428 8.1811 40.4793 10.3811L40.6535 9.39634ZM41.464 10.5552C41.5602 10.0114 41.1973 9.49255 40.6535 9.39634L40.4793 10.3811L40.4793 10.3811L41.464 10.5552ZM61.5554 44.5604C61.7315 44.0369 61.45 43.4698 60.9266 43.2936L60.6076 44.2414L61.5554 44.5604ZM59.7844 48.6706C60.4764 47.372 61.0709 45.9998 61.5554 44.5604L60.6076 44.2414C60.1408 45.6284 59.5681 46.95 58.9019 48.2003L59.7844 48.6706ZM58.4316 49.0828C58.919 49.3425 59.5246 49.158 59.7844 48.6706L58.9019 48.2003L58.4316 49.0828ZM58.0193 47.73C57.7596 48.2174 57.9442 48.8231 58.4316 49.0828L58.9019 48.2003L58.0193 47.73ZM59.6599 43.9224C59.2106 45.257 58.6598 46.5281 58.0193 47.73L58.9019 48.2003C59.5681 46.95 60.1408 45.6284 60.6076 44.2414L59.6599 43.9224ZM60.9266 43.2936C60.4032 43.1174 59.836 43.3989 59.6599 43.9224L60.6076 44.2414L60.9266 43.2936ZM12.3429 27.9983C12.5189 27.4748 12.2372 26.9078 11.7137 26.7318L11.3951 27.6797L11.3951 27.6797L12.3429 27.9983ZM12.017 29.0407C12.1175 28.693 12.2262 28.3456 12.3429 27.9983L11.3951 27.6797C11.2739 28.0401 11.1609 28.4012 11.0563 28.7632L12.017 29.0407ZM10.7787 29.7239C11.3093 29.8772 11.8637 29.5713 12.017 29.0407L11.0563 28.7632L11.0563 28.7632L10.7787 29.7239ZM10.0956 28.4856C9.94229 29.0162 10.2481 29.5706 10.7787 29.7239L11.0563 28.7632L11.0563 28.7632L10.0956 28.4856ZM10.4472 27.361C10.3216 27.7346 10.2043 28.1094 10.0956 28.4856L11.0563 28.7632C11.1609 28.4012 11.2739 28.0401 11.3951 27.6797L10.4472 27.361ZM11.7137 26.7318C11.1902 26.5558 10.6232 26.8375 10.4472 27.361L11.3951 27.6797L11.3951 27.6797L11.7137 26.7318Z" fill="#FF4A00"/>
<path d="M22.0548 52.9854L21.8234 52.5422L21.8234 52.5422L22.0548 52.9854ZM22.2666 52.3108L22.7099 52.0793L22.7099 52.0793L22.2666 52.3108ZM17.8009 54.8029L17.9612 55.2765L17.9612 55.2765L17.8009 54.8029ZM17.167 54.4895L16.6934 54.6498L17.167 54.4895ZM17.4803 53.8556L17.3201 53.382L17.3201 53.382L17.4803 53.8556ZM21.592 52.0989L21.8234 52.5422L21.8234 52.5422L21.592 52.0989ZM36.4686 36.1176L36.9425 36.2771L36.9425 36.2771L36.4686 36.1176ZM36.1542 35.4843L35.9947 35.9581L35.9947 35.9581L36.1542 35.4843ZM24.0533 51.8421L24.3181 52.2662L24.3181 52.2662L24.0533 51.8421ZM23.3643 51.6828L22.9402 51.9476L23.3643 51.6828ZM23.5236 50.9938L23.2588 50.5697L23.5236 50.9938ZM35.5208 35.7987L35.047 35.6392L35.047 35.6392L35.5208 35.7987ZM22.2862 53.4286C22.7758 53.173 22.9655 52.5689 22.7099 52.0793L21.8234 52.5422L22.2862 53.4286ZM17.9612 55.2765C19.4496 54.7728 20.8958 54.1546 22.2862 53.4286L21.8234 52.5422C20.4787 53.2442 19.08 53.8421 17.6406 54.3293L17.9612 55.2765ZM16.6934 54.6498C16.8705 55.173 17.4381 55.4535 17.9612 55.2765L17.6406 54.3293L17.6406 54.3293L16.6934 54.6498ZM17.3201 53.382C16.7969 53.5591 16.5164 54.1267 16.6934 54.6498L17.6406 54.3293L17.6406 54.3293L17.3201 53.382ZM21.3606 51.6557C20.0615 52.3339 18.7104 52.9115 17.3201 53.382L17.6406 54.3293C19.08 53.8421 20.4787 53.2442 21.8234 52.5422L21.3606 51.6557ZM22.7099 52.0793C22.4543 51.5898 21.8502 51.4001 21.3606 51.6557L21.8234 52.5422L22.7099 52.0793ZM36.9425 36.2771C37.1187 35.7537 36.8371 35.1865 36.3137 35.0104L35.9947 35.9581L35.9947 35.9581L36.9425 36.2771ZM24.3181 52.2662C30.0474 48.6888 34.6201 43.1778 36.9425 36.2771L35.9947 35.9581C33.7489 42.6313 29.3286 47.9587 23.7884 51.4179L24.3181 52.2662ZM22.9402 51.9476C23.2327 52.416 23.8496 52.5587 24.3181 52.2662L23.7884 51.4179L23.7884 51.4179L22.9402 51.9476ZM23.2588 50.5697C22.7904 50.8622 22.6477 51.4791 22.9402 51.9476L23.7884 51.4179L23.7884 51.4179L23.2588 50.5697ZM35.047 35.6392C32.8777 42.0848 28.6098 47.2286 23.2588 50.5697L23.7884 51.4179C29.3286 47.9587 33.7489 42.6313 35.9947 35.9581L35.047 35.6392ZM36.3137 35.0104C35.7903 34.8342 35.2231 35.1157 35.047 35.6392L35.9947 35.9581L35.9947 35.9581L36.3137 35.0104Z" fill="#FF4A00"/>
<path d="M31.6929 49.8772L31.3384 49.5246L31.6929 49.8772ZM31.6911 49.1701L31.3384 49.5246L31.3384 49.5246L31.6911 49.1701ZM20.6259 57.216L20.4387 56.7524L20.4387 56.7524L20.6259 57.216ZM19.9751 56.9397L20.4387 56.7524L20.4387 56.7524L19.9751 56.9397ZM20.2514 56.2888L20.4387 56.7524L20.4387 56.7524L20.2514 56.2888ZM30.984 49.1719L30.6295 48.8193L30.984 49.1719ZM39.5443 37.1543L39.0713 36.9923L39.0704 36.9949L39.5443 37.1543ZM33.7174 47.6461L33.3321 47.3275L33.7174 47.6461ZM33.0135 47.7128L32.6949 48.0981L32.6949 48.0981L33.0135 47.7128ZM32.9468 47.0088L32.5614 46.6902L32.5614 46.6902L32.9468 47.0088ZM38.597 36.834L39.0709 36.9935L39.0709 36.9934L38.597 36.834ZM38.5979 36.8313L38.7607 36.3585L38.2845 36.1946L38.124 36.6719L38.5979 36.8313ZM38.5979 36.8313L38.4352 37.304L38.9085 37.467L39.0709 36.9935L38.5979 36.8313ZM36.8703 33.3367L36.3964 33.1772L36.2369 33.6511L36.7108 33.8106L36.8703 33.3367ZM37.1892 32.3889L37.3493 31.9152L37.3486 31.915L37.1892 32.3889ZM32.4232 34.7552L31.9493 34.5957L31.9491 34.5963L32.4232 34.7552ZM36.8703 33.3367L37.0926 33.7845L38.174 33.2477L37.0297 32.8628L36.8703 33.3367ZM15.4445 52.1367L15.58 52.618L15.58 52.618L15.4445 52.1367ZM14.8277 51.7909L15.309 51.6554L15.309 51.6554L14.8277 51.7909ZM15.1736 51.1741L15.0381 50.6928L15.0381 50.6928L15.1736 51.1741ZM32.4227 34.7564L31.9487 34.5975L31.9485 34.5982L32.4227 34.7564ZM32.0474 50.2299C32.4369 49.8383 32.4353 49.2052 32.0437 48.8156L31.3384 49.5246L32.0474 50.2299ZM20.8132 57.6797C24.998 55.9894 28.8312 53.4626 32.0474 50.2299L31.3384 49.5246C28.2187 52.6605 24.4995 55.1123 20.4387 56.7524L20.8132 57.6797ZM19.5115 57.1269C19.7183 57.639 20.3011 57.8865 20.8132 57.6797L20.4387 56.7524L20.4387 56.7524L19.5115 57.1269ZM20.0642 55.8252C19.5521 56.032 19.3046 56.6148 19.5115 57.1269L20.4387 56.7524L20.4387 56.7524L20.0642 55.8252ZM30.6295 48.8193C27.6061 51.8584 24.001 54.2351 20.0642 55.8252L20.4387 56.7524C24.4995 55.1123 28.2187 52.6605 31.3384 49.5246L30.6295 48.8193ZM32.0437 48.8156C31.6522 48.4261 31.019 48.4278 30.6295 48.8193L31.3384 49.5246L32.0437 48.8156ZM40.0173 37.3164C40.7821 35.0838 39.5787 32.6654 37.3486 31.915L37.0297 32.8628C38.7373 33.4374 39.6554 35.2871 39.0713 36.9923L40.0173 37.3164ZM34.1028 47.9647C36.6425 44.8931 38.672 41.3136 40.0182 37.3138L39.0704 36.9949C37.7639 40.8768 35.7951 44.3487 33.3321 47.3275L34.1028 47.9647ZM32.6949 48.0981C33.1205 48.4501 33.7508 48.3903 34.1028 47.9647L33.3321 47.3275L33.3321 47.3275L32.6949 48.0981ZM32.5614 46.6902C32.2095 47.1159 32.2692 47.7462 32.6949 48.0981L33.3321 47.3275L33.3321 47.3275L32.5614 46.6902ZM38.1231 36.6746C36.8563 40.4391 34.9479 43.804 32.5614 46.6902L33.3321 47.3275C35.7954 44.3484 37.7644 40.876 39.0709 36.9935L38.1231 36.6746ZM38.124 36.6719L38.1231 36.6746L39.0709 36.9934L39.0718 36.9907L38.124 36.6719ZM38.7607 36.3585L38.7607 36.3585L38.4352 37.304L38.4352 37.304L38.7607 36.3585ZM36.7108 33.8106C37.8959 34.2093 38.5291 35.4908 38.125 36.6691L39.0709 36.9935C39.6559 35.288 38.7377 33.4375 37.0297 32.8628L36.7108 33.8106ZM37.3442 33.4961L37.6631 32.5483L36.7153 32.2294L36.3964 33.1772L37.3442 33.4961ZM37.3493 31.9152L37.3493 31.9152L37.0291 32.8626L37.0291 32.8626L37.3493 31.9152ZM37.3493 31.9152L37.3493 31.9152L37.0291 32.8626L37.0291 32.8626L37.3493 31.9152ZM37.3486 31.915C35.1176 31.1644 32.7002 32.3642 31.9493 34.5957L32.897 34.9147C33.4719 33.2066 35.3221 32.2883 37.0297 32.8628L37.3486 31.915ZM36.9668 31.941L32.2008 34.3074L32.6455 35.203L37.4115 32.8367L36.9668 31.941ZM33.845 35.2331C34.2438 34.0488 35.5268 33.4122 36.7108 33.8106L37.0297 32.8628C35.3224 32.2883 33.4724 33.2064 32.8973 34.914L33.845 35.2331ZM36.6479 32.8888L33.1488 34.6257L33.5934 35.5214L37.0926 33.7845L36.6479 32.8888ZM15.58 52.618C23.872 50.284 30.9111 44.026 33.8454 35.2318L32.8968 34.9153C30.0722 43.3809 23.2968 49.407 15.309 51.6554L15.58 52.618ZM14.3464 51.9264C14.4961 52.458 15.0484 52.7677 15.58 52.618L15.309 51.6554L15.309 51.6554L14.3464 51.9264ZM15.0381 50.6928C14.5065 50.8425 14.1968 51.3948 14.3464 51.9264L15.309 51.6554L15.309 51.6554L15.0381 50.6928ZM31.9485 34.5982C29.2335 42.7355 22.7218 48.53 15.0381 50.6928L15.309 51.6554C23.297 49.407 30.0725 43.3806 32.897 34.9147L31.9485 34.5982ZM31.9491 34.5963L31.9487 34.5975L32.8968 34.9153L32.8972 34.9141L31.9491 34.5963ZM32.264 35.2292L33.212 35.5475L33.5303 34.5996L32.5823 34.2812L32.264 35.2292ZM36.5564 32.7015L36.5564 32.7015L37.503 33.0239L37.503 33.0239L36.5564 32.7015ZM37.503 33.0239L37.503 33.0239L36.5564 32.7015L36.5564 32.7015L37.503 33.0239Z" fill="#FF4A00"/>
<path d="M29.2337 56.1885L29.5225 56.5967L29.2337 56.1885ZM29.3532 55.4916L28.945 55.7803L29.3532 55.4916ZM23.9471 59.2953L23.7309 58.8444L23.9471 59.2953ZM23.2801 59.0606L22.8292 59.2767L23.2801 59.0606ZM23.5148 58.3936L23.7309 58.8444L23.5148 58.3936ZM28.6563 55.3721L28.3676 54.9639L28.6563 55.3721ZM42.6202 38.1888L42.1466 38.0283L42.1463 38.0293L42.6202 38.1888ZM38.2231 29.3156L38.0637 29.7895L38.2231 29.3156ZM30.9681 54.8823L30.6555 54.4921L30.9681 54.8823ZM30.3429 54.1018L30.6555 54.4921L30.6555 54.4921L30.3429 54.1018ZM41.6726 37.8693L41.1989 37.7094L41.1987 37.7098L41.6726 37.8693ZM41.6729 37.8683L41.1994 37.7078L41.1992 37.7084L41.6729 37.8683ZM37.9042 30.2634L37.7448 30.7373L37.7448 30.7373L37.9042 30.2634ZM37.5898 29.63L37.1159 29.4706L37.1159 29.4706L37.5898 29.63ZM35.6978 29.955L35.7221 30.4544L35.6978 29.955ZM36.1729 29.4312L36.6723 29.4069L36.6723 29.4069L36.1729 29.4312ZM30.2973 34.0389L29.8234 33.8794L29.8228 33.8811L30.2973 34.0389ZM19.9372 46.7442L19.6868 46.3114L19.9372 46.7442ZM19.254 46.5618L18.8212 46.8122L18.8212 46.8122L19.254 46.5618ZM19.4364 45.8786L19.6868 46.3114L19.6868 46.3114L19.4364 45.8786ZM29.3487 33.7225L28.8745 33.564L28.8742 33.5648L29.3487 33.7225ZM29.3492 33.7208L28.8753 33.5614L28.875 33.5623L29.3492 33.7208ZM35.6491 28.9562L35.6735 29.4556L35.6491 28.9562ZM18.0539 47.7225L18.264 48.1762L18.0539 47.7225ZM18.2975 47.0586L17.8437 47.2688L17.8437 47.2688L18.2975 47.0586ZM13.5347 49.2765L13.4214 48.7895L13.4214 48.7895L13.5347 49.2765ZM12.9344 48.9027L12.4474 49.016L12.4474 49.016L12.9344 48.9027ZM13.3081 48.3025L13.1949 47.8155L13.1949 47.8155L13.3081 48.3025ZM17.6336 46.815L17.8437 47.2688L17.6336 46.815ZM29.5225 56.5967C29.9734 56.2778 30.0804 55.6537 29.7614 55.2028L28.945 55.7803L29.5225 56.5967ZM24.1633 59.7461C26.0325 58.8499 27.8261 57.7965 29.5225 56.5967L28.945 55.7803C27.2946 56.9476 25.5497 57.9724 23.7309 58.8444L24.1633 59.7461ZM22.8292 59.2767C23.068 59.7747 23.6653 59.9849 24.1633 59.7461L23.7309 58.8444L22.8292 59.2767ZM23.2986 57.9427C22.8006 58.1815 22.5904 58.7787 22.8292 59.2767L23.7309 58.8444L23.2986 57.9427ZM28.3676 54.9639C26.7632 56.0986 25.0668 57.0949 23.2986 57.9427L23.7309 58.8444C25.5497 57.9724 27.2946 56.9476 28.945 55.7803L28.3676 54.9639ZM29.7614 55.2028C29.4425 54.7519 28.8185 54.6449 28.3676 54.9639L28.945 55.7803L29.7614 55.2028ZM43.0937 38.3493C44.425 34.4206 42.311 30.1636 38.3826 28.8417L38.0637 29.7895C41.4689 30.9353 43.3 34.6246 42.1466 38.0283L43.0937 38.3493ZM31.2807 55.2725C36.5815 51.0261 40.7676 45.2609 43.0941 38.3483L42.1463 38.0293C39.8827 44.755 35.8113 50.3618 30.6555 54.4921L31.2807 55.2725ZM29.8751 55.1173C30.2204 55.5483 30.8497 55.6178 31.2807 55.2725L30.6555 54.4921L30.6555 54.4921L29.8751 55.1173ZM30.0303 53.7116C29.5993 54.0569 29.5298 54.6862 29.8751 55.1173L30.6555 54.4921L30.6555 54.4921L30.0303 53.7116ZM41.1987 37.7098C38.9981 44.2488 35.0412 49.6974 30.0303 53.7116L30.6555 54.4921C35.8114 50.3617 39.8829 44.7547 42.1465 38.0288L41.1987 37.7098ZM41.1992 37.7084L41.1989 37.7094L42.1463 38.0293L42.1467 38.0282L41.1992 37.7084ZM37.7448 30.7373C40.6268 31.707 42.1752 34.8287 41.1994 37.7078L42.1465 38.0288C43.3002 34.6249 41.469 30.9353 38.0637 29.7895L37.7448 30.7373ZM37.1159 29.4706C36.9398 29.994 37.2213 30.5611 37.7448 30.7373L38.0637 29.7895L38.0637 29.7895L37.1159 29.4706ZM38.3826 28.8417C37.8592 28.6656 37.292 28.9471 37.1159 29.4706L38.0637 29.7895L38.0637 29.7895L38.3826 28.8417ZM35.7221 30.4544C36.2738 30.4275 36.6992 29.9585 36.6723 29.4069L35.6735 29.4556L35.6735 29.4556L35.7221 30.4544ZM30.7712 34.1984C31.5147 31.9897 33.5238 30.5616 35.7221 30.4544L35.6735 29.4556C33.0778 29.5821 30.7026 31.2679 29.8234 33.8794L30.7712 34.1984ZM20.1875 47.177C25.0078 44.3884 28.8754 39.8992 30.7717 34.1967L29.8228 33.8811C28.0069 39.3417 24.3047 43.6399 19.6868 46.3114L20.1875 47.177ZM18.8212 46.8122C19.0978 47.2902 19.7095 47.4536 20.1875 47.177L19.6868 46.3114L19.6868 46.3114L18.8212 46.8122ZM19.186 45.4458C18.708 45.7224 18.5446 46.3341 18.8212 46.8122L19.6868 46.3114L19.6868 46.3114L19.186 45.4458ZM28.8742 33.5648C27.1388 38.7838 23.6018 42.8912 19.186 45.4458L19.6868 46.3114C24.3049 43.6397 28.0073 39.3413 29.8231 33.8803L28.8742 33.5648ZM28.875 33.5623L28.8745 33.564L29.8229 33.8811L29.8234 33.8794L28.875 33.5623ZM35.6248 28.4568C32.6318 28.6027 29.8899 30.5462 28.8753 33.5614L29.8231 33.8803C30.702 31.2683 33.0775 29.5822 35.6735 29.4556L35.6248 28.4568ZM36.6723 29.4069C36.6454 28.8553 36.1764 28.4299 35.6248 28.4568L35.6735 29.4556L35.6735 29.4556L36.6723 29.4069ZM18.264 48.1762C18.7651 47.9441 18.9833 47.3497 18.7512 46.8485L17.8437 47.2688L18.264 48.1762ZM13.6479 49.7635C15.2409 49.393 16.7878 48.8598 18.264 48.1762L17.8437 47.2688C16.4294 47.9237 14.9474 48.4346 13.4214 48.7895L13.6479 49.7635ZM12.4474 49.016C12.5725 49.5539 13.11 49.8886 13.6479 49.7635L13.4214 48.7895L13.4214 48.7895L12.4474 49.016ZM13.1949 47.8155C12.6569 47.9406 12.3223 48.4781 12.4474 49.016L13.4214 48.7895L13.4214 48.7895L13.1949 47.8155ZM17.4235 46.3613C16.0709 46.9877 14.6538 47.4761 13.1949 47.8155L13.4214 48.7895C14.9474 48.4346 16.4294 47.9237 17.8437 47.2688L17.4235 46.3613ZM18.7512 46.8485C18.5191 46.3474 17.9247 46.1292 17.4235 46.3613L17.8437 47.2688L17.8437 47.2688L18.7512 46.8485Z" fill="#FF4A00"/>
<path d="M27.5515 60.5069C35.5895 55.9401 42.0425 48.5149 45.2229 39.0639L45.2279 39.0646C46.9451 33.9617 44.2011 28.4333 39.0984 26.7162C33.9956 24.9989 28.4672 27.743 26.75 32.8461L26.767 32.8524C24.444 39.7545 18.6334 44.4981 11.9577 45.7831" stroke="#FF4A00" stroke-linecap="round"/>
<path d="M31.9371 61.6019C39.3431 56.6015 45.2285 49.2219 48.2987 40.0993C50.5896 33.2985 46.9326 25.9313 40.1326 23.6428C33.3322 21.3544 25.9647 25.0114 23.676 31.8119C21.7038 37.7207 16.655 41.7276 10.9081 42.6708" stroke="#FF4A00" stroke-linecap="round"/>
<path d="M20.5985 32.1908L21.0544 32.396L20.5985 32.1908ZM20.3478 31.5296L20.553 31.0737L20.3478 31.5296ZM10.3394 39.98L10.4157 40.4741L10.4157 40.4741L10.3394 39.98ZM9.76896 39.5621L10.2631 39.4859L10.2631 39.4859L9.76896 39.5621ZM10.1868 38.9917L10.1105 38.4976L10.1105 38.4976L10.1868 38.9917ZM19.6866 31.7803L20.1425 31.9856L19.6866 31.7803ZM41.0073 21.0433L40.5334 20.8839L40.3739 21.3578L40.8478 21.5172L41.0073 21.0433ZM50.8113 30.6766L51.2822 30.5085L51.2822 30.5085L50.8113 30.6766ZM41.0073 21.0433L40.8478 21.5172L41.3217 21.6767L41.4812 21.2028L41.0073 21.0433ZM21.6256 29.5291L21.1689 29.3254L21.6256 29.5291ZM20.7123 29.1218L20.2557 28.9181L20.7123 29.1218ZM41.3262 20.0956L41.1667 20.5695L41.1667 20.5695L41.3262 20.0956ZM51.7532 30.3405L51.2822 30.5085L51.7532 30.3405ZM52.4492 32.9274L52.9409 32.8365L52.4492 32.9274ZM51.8667 32.5266L51.7758 32.0349L51.8667 32.5266ZM51.8483 41.2929L51.3744 41.1334L51.3744 41.1334L51.8483 41.2929ZM46.5009 52.191L46.9166 52.4687L46.9166 52.4687L46.5009 52.191ZM45.8074 52.3289L46.0851 51.9132L46.0851 51.9132L45.8074 52.3289ZM45.6694 51.6354L46.0851 51.9132L45.6694 51.6354ZM50.9005 40.974L50.4266 40.8143L50.4266 40.8145L50.9005 40.974ZM50.9005 40.9739L51.3743 41.1336L51.3744 41.1334L50.9005 40.9739ZM51.4659 33.1091L50.9742 33.2L51.4659 33.1091ZM45.2533 53.9654L45.6553 54.2626L45.2533 53.9654ZM45.1484 53.2661L44.8512 53.6682L45.1484 53.2661ZM37.2915 62.2923L37.6066 62.6805L37.2915 62.2923ZM36.5881 62.2193L36.9763 61.9041L36.5881 62.2193ZM36.6612 61.5159L36.9763 61.9041L36.6612 61.5159ZM44.4492 53.3709L44.0471 53.0737L44.4492 53.3709ZM21.0544 32.396C21.2811 31.8924 21.0566 31.3004 20.553 31.0737L20.1425 31.9856L21.0544 32.396ZM10.4157 40.4741C14.9856 39.7686 19.0645 36.8165 21.0544 32.396L20.1425 31.9856C18.2962 36.0873 14.5095 38.8302 10.2631 39.4859L10.4157 40.4741ZM9.27482 39.6384C9.35909 40.1843 9.86988 40.5584 10.4157 40.4741L10.2631 39.4859L10.2631 39.4859L9.27482 39.6384ZM10.1105 38.4976C9.56471 38.5818 9.19055 39.0926 9.27482 39.6384L10.2631 39.4859L10.2631 39.4859L10.1105 38.4976ZM19.2307 31.5751C17.5277 35.3581 14.0333 37.8919 10.1105 38.4976L10.2631 39.4859C14.5095 38.8302 18.2962 36.0873 20.1425 31.9856L19.2307 31.5751ZM20.553 31.0737C20.0494 30.847 19.4574 31.0715 19.2307 31.5751L20.1425 31.9856L20.553 31.0737ZM40.8478 21.5172C45.4502 23.0661 48.8248 26.5977 50.3404 30.8446L51.2822 30.5085C49.6681 25.9854 46.0718 22.2201 41.1667 20.5695L40.8478 21.5172ZM40.6927 20.4103L40.5334 20.8839L41.4812 21.2028L41.6405 20.7293L40.6927 20.4103ZM41.4812 21.2028L41.6405 20.7293L40.6927 20.4103L40.5334 20.8839L41.4812 21.2028ZM22.0822 29.7327C25.2439 22.6434 33.3411 18.991 40.8478 21.5172L41.1667 20.5695C33.1668 17.8772 24.5386 21.7697 21.1689 29.3254L22.0822 29.7327ZM20.7616 30.2387C21.266 30.4637 21.8573 30.2371 22.0822 29.7327L21.1689 29.3254L21.1689 29.3254L20.7616 30.2387ZM20.2557 28.9181C20.0307 29.4225 20.2572 30.0138 20.7616 30.2387L21.1689 29.3254L21.1689 29.3254L20.2557 28.9181ZM41.4857 19.6217C32.9924 16.7634 23.8333 20.896 20.2557 28.9181L21.1689 29.3254C24.5386 21.7697 33.1668 17.8772 41.1667 20.5695L41.4857 19.6217ZM52.2241 30.1724C50.5114 25.3732 46.6934 21.3742 41.4857 19.6217L41.1667 20.5695C46.0718 22.2201 49.6681 25.9854 51.2822 30.5085L52.2241 30.1724ZM51.6183 31.4504C52.1385 31.2647 52.4097 30.6926 52.2241 30.1724L51.2822 30.5085L51.2822 30.5085L51.6183 31.4504ZM50.3404 30.8446C50.526 31.3648 51.0982 31.636 51.6183 31.4504L51.2822 30.5085L51.2822 30.5085L50.3404 30.8446ZM52.9409 32.8365C52.8405 32.2934 52.3189 31.9345 51.7758 32.0349L51.9575 33.0182L52.9409 32.8365ZM52.3221 41.4523C53.2894 38.5778 53.4561 35.6241 52.9409 32.8365L51.9575 33.0182C52.4426 35.6429 52.2861 38.4241 51.3744 41.1334L52.3221 41.4523ZM46.9166 52.4687C49.1487 49.1279 50.9803 45.4409 52.3222 41.4523L51.3744 41.1334C50.0609 45.0376 48.2686 48.6451 46.0851 51.9132L46.9166 52.4687ZM45.5296 52.7447C45.9888 53.0515 46.6098 52.928 46.9166 52.4687L46.0851 51.9132L46.0851 51.9132L45.5296 52.7447ZM45.2536 51.3577C44.9468 51.8169 45.0704 52.4379 45.5296 52.7447L46.0851 51.9132L45.2536 51.3577ZM50.4266 40.8145C49.1415 44.6342 47.3886 48.1623 45.2536 51.3577L46.0851 51.9132C48.2686 48.6451 50.0609 45.0375 51.3744 41.1334L50.4266 40.8145ZM50.4266 40.8143L50.4266 40.8143L51.3743 41.1336L51.3743 41.1336L50.4266 40.8143ZM50.9742 33.2C51.4292 35.6617 51.2827 38.2704 50.4266 40.8145L51.3744 41.1334C52.2861 38.4241 52.4426 35.6429 51.9575 33.0182L50.9742 33.2ZM51.7758 32.0349C51.2327 32.1353 50.8738 32.6569 50.9742 33.2L51.9575 33.0182L51.7758 32.0349ZM45.6553 54.2626C45.9837 53.8185 45.8898 53.1924 45.4457 52.8641L44.8512 53.6682L45.6553 54.2626ZM37.6066 62.6805C40.6043 60.2472 43.3158 57.4273 45.6553 54.2626L44.8512 53.6682C42.5625 56.7641 39.9096 59.5231 36.9763 61.9041L37.6066 62.6805ZM36.1999 62.5344C36.548 62.9632 37.1778 63.0286 37.6066 62.6805L36.9763 61.9041L36.1999 62.5344ZM36.3461 61.1277C35.9173 61.4758 35.8519 62.1056 36.1999 62.5344L36.9763 61.9041L36.9763 61.9041L36.3461 61.1277ZM44.0471 53.0737C41.8092 56.1009 39.215 58.799 36.3461 61.1277L36.9763 61.9041C39.9096 59.5231 42.5625 56.7641 44.8512 53.6682L44.0471 53.0737ZM45.4457 52.8641C45.0016 52.5357 44.3754 52.6296 44.0471 53.0737L44.8512 53.6682L45.4457 52.8641Z" fill="#FF4A00"/>
<path d="M52.6149 48.0086L52.1643 47.7919L52.6149 48.0086ZM52.381 47.3413L52.1643 47.7919L52.381 47.3413ZM43.1584 61.362L42.8045 61.0089L43.1584 61.362ZM42.4513 61.3629L42.8045 61.0089L42.8045 61.0089L42.4513 61.3629ZM42.4505 60.6558L42.0965 60.3027L42.4505 60.6558ZM51.7137 47.5752L51.2631 47.3585L51.7137 47.5752ZM54.9244 42.3293L54.4505 42.17L54.4494 42.1733L54.9244 42.3293ZM42.3604 17.0222L42.5199 16.5483L42.3604 17.0222ZM54.9244 42.3294L55.3983 42.4889L55.3994 42.4854L54.9244 42.3294ZM53.8248 45.2849L53.3619 45.0957L53.3619 45.0958L53.8248 45.2849ZM53.1728 45.5586L53.3619 45.0957L53.3619 45.0957L53.1728 45.5586ZM52.899 44.9066L53.3619 45.0958L53.3619 45.0957L52.899 44.9066ZM53.9766 42.0105L54.4505 42.17L54.4506 42.1698L53.9766 42.0105ZM42.0414 17.97L42.2009 17.4961L42.0414 17.97ZM41.727 17.3366L42.2009 17.4961L42.2009 17.4961L41.727 17.3366ZM38.9177 17.2031L38.9955 16.7092L38.9177 17.2031ZM39.4894 16.7869L38.9955 16.7092L39.4894 16.7869ZM18.0027 29.9023L17.5288 29.7428L17.5284 29.7441L18.0027 29.9023ZM10.1111 36.7296L10.0219 36.2376L10.1111 36.7296ZM9.52993 36.3268L10.0219 36.2376L10.0219 36.2376L9.52993 36.3268ZM9.93271 35.7457L10.0219 36.2376L10.0219 36.2376L9.93271 35.7457ZM17.0543 29.5853L16.5801 29.4265L16.5799 29.4271L17.0543 29.5853ZM17.0547 29.584L16.5808 29.4245L16.5806 29.4252L17.0547 29.584ZM39.0733 16.2152L38.9955 16.7092L38.9955 16.7092L39.0733 16.2152ZM53.0655 48.2253C53.3048 47.7275 53.0954 47.13 52.5977 46.8907L52.1643 47.7919L53.0655 48.2253ZM43.5124 61.7151C47.3567 57.8613 50.6101 53.3312 53.0655 48.2253L52.1643 47.7919C49.7585 52.7946 46.571 57.2329 42.8045 61.0089L43.5124 61.7151ZM42.0982 61.7169C42.4892 62.1069 43.1224 62.1061 43.5124 61.7151L42.8045 61.0089L42.8045 61.0089L42.0982 61.7169ZM42.0965 60.3027C41.7064 60.6937 41.7072 61.3269 42.0982 61.7169L42.8045 61.0089L42.0965 60.3027ZM51.2631 47.3585C48.9069 52.2581 45.7854 56.6045 42.0965 60.3027L42.8045 61.0089C46.571 57.2329 49.7585 52.7946 52.1643 47.7919L51.2631 47.3585ZM52.5977 46.8907C52.0999 46.6513 51.5024 46.8608 51.2631 47.3585L52.1643 47.7919L52.5977 46.8907ZM55.3984 42.4886C59.0024 31.768 53.2382 20.1557 42.5199 16.5483L42.2009 17.4961C52.3957 20.9272 57.8786 31.9725 54.4505 42.17L55.3984 42.4886ZM55.3994 42.4854L55.3995 42.4853L54.4494 42.1733L54.4493 42.1734L55.3994 42.4854ZM54.2876 45.474C54.6866 44.4976 55.0572 43.5023 55.3983 42.4889L54.4505 42.17C54.1162 43.1634 53.7529 44.1388 53.3619 45.0957L54.2876 45.474ZM52.9837 46.0215C53.4949 46.2304 54.0787 45.9852 54.2876 45.474L53.3619 45.0958L53.3619 45.0957L52.9837 46.0215ZM52.4362 44.7175C52.2273 45.2288 52.4724 45.8126 52.9837 46.0215L53.3619 45.0957L53.3619 45.0958L52.4362 44.7175ZM53.5027 41.851C53.1751 42.8244 52.8192 43.7801 52.4362 44.7175L53.3619 45.0957C53.7529 44.1388 54.1162 43.1634 54.4505 42.17L53.5027 41.851ZM41.8819 18.4439C51.5532 21.6988 56.7548 32.1769 53.5027 41.8511L54.4506 42.1698C57.8786 31.9724 52.3957 20.9272 42.2009 17.4961L41.8819 18.4439ZM41.2531 17.1771C41.077 17.7006 41.3585 18.2677 41.8819 18.4439L42.2009 17.4961L42.2009 17.4961L41.2531 17.1771ZM42.5199 16.5483C41.9964 16.3722 41.4293 16.6537 41.2531 17.1771L42.2009 17.4961L42.2009 17.4961L42.5199 16.5483ZM38.84 17.697C39.3855 17.7829 39.8974 17.4103 39.9833 16.8647L38.9955 16.7092L38.9955 16.7092L38.84 17.697ZM18.4765 30.0618C21.3923 21.399 30.1044 16.3214 38.84 17.697L38.9955 16.7092C29.7863 15.259 20.6027 20.6102 17.5288 29.7428L18.4765 30.0618ZM10.2003 37.2216C13.9282 36.5458 17.1912 33.9153 18.477 30.0605L17.5284 29.7441C16.3633 33.2373 13.4065 35.624 10.0219 36.2376L10.2003 37.2216ZM9.03795 36.416C9.13646 36.9595 9.65687 37.3201 10.2003 37.2216L10.0219 36.2376L10.0219 36.2376L9.03795 36.416ZM9.84352 35.2537C9.3001 35.3522 8.93943 35.8726 9.03795 36.416L10.0219 36.2376L10.0219 36.2376L9.84352 35.2537ZM16.5799 29.4271C15.5355 32.5591 12.8847 34.7023 9.84352 35.2537L10.0219 36.2376C13.4067 35.624 16.3636 33.237 17.5286 29.7435L16.5799 29.4271ZM16.5806 29.4252L16.5801 29.4265L17.5284 29.7441L17.5288 29.7427L16.5806 29.4252ZM39.1511 15.7213C29.4682 14.1966 19.8126 19.8216 16.5808 29.4245L17.5286 29.7435C20.6023 20.6105 29.7861 15.259 38.9955 16.7092L39.1511 15.7213ZM39.9833 16.8647C40.0692 16.3191 39.6966 15.8072 39.1511 15.7213L38.9955 16.7092L38.9955 16.7092L39.9833 16.8647Z" fill="#FF4A00"/>
<path d="M54.257 51.9111L54.6954 52.1515L54.257 51.9111ZM54.0592 51.2322L53.8187 51.6706L54.0592 51.2322ZM50.1309 58.2837L50.5297 58.5853L50.1309 58.2837ZM49.4305 58.3809L49.129 58.7797L49.129 58.7797L49.4305 58.3809ZM49.3333 57.6805L48.9345 57.3789L49.3333 57.6805ZM53.3803 51.4301L53.8187 51.6706L53.3803 51.4301ZM59.1577 34.309L58.659 34.3448L59.1577 34.309ZM58.0007 43.3644L58.4746 43.5237L58.4747 43.5236L58.0007 43.3644ZM58.0006 43.3646L58.4745 43.5241L58.4745 43.524L58.0006 43.3646ZM55.8123 48.8408L56.2655 49.052L55.8123 48.8408ZM55.1479 49.0828L54.9367 49.5361L54.9367 49.5361L55.1479 49.0828ZM54.9059 48.4184L54.4526 48.2073L54.9059 48.4184ZM57.0528 43.0459L57.5266 43.2054L57.5391 43.1685L57.5456 43.13L57.0528 43.0459ZM57.0528 43.0457L56.5569 42.9823L57.5268 43.2049L57.0528 43.0457ZM58.6371 30.8175L59.1246 30.7063L59.1246 30.7063L58.6371 30.8175ZM43.3949 13.949L43.5544 13.4751L43.5544 13.4751L43.3949 13.949ZM58.2608 31.4161L58.1496 30.9286L58.1496 30.9286L58.2608 31.4161ZM57.6621 31.0398L58.1496 30.9286L58.1496 30.9286L57.6621 31.0398ZM43.0759 14.8968L43.2354 14.4229L43.2354 14.4229L43.0759 14.8968ZM22.7283 18.1235L23.0263 18.525L22.7283 18.1235ZM22.0289 18.02L22.4304 17.722L22.4304 17.722L22.0289 18.02ZM22.1324 17.3205L22.4304 17.722L22.1324 17.3205ZM20.0868 20.4284L19.7293 20.0789L20.0868 20.4284ZM20.0789 19.7214L20.4285 19.3639L20.0789 19.7214ZM14.9294 28.8678L14.4555 28.7083L14.4549 28.7099L14.9294 28.8678ZM10.3544 33.3344L10.2068 32.8567L10.2068 32.8567L10.3544 33.3344ZM10.0592 32.379L9.91156 31.9013L9.91156 31.9013L10.0592 32.379ZM13.9807 28.5513L13.5066 28.3927L13.5063 28.3935L13.9807 28.5513ZM13.9813 28.5496L13.5074 28.3902L13.5071 28.391L13.9813 28.5496ZM19.3718 19.7293L19.7293 20.0789L19.3718 19.7293ZM54.6954 52.1515C54.961 51.6673 54.7838 51.0595 54.2996 50.7938L53.8187 51.6706L54.6954 52.1515ZM50.5297 58.5853C52.0584 56.5638 53.4529 54.4164 54.6954 52.1515L53.8187 51.6706C52.5997 53.8924 51.2317 55.999 49.7321 57.9821L50.5297 58.5853ZM49.129 58.7797C49.5695 59.1128 50.1966 59.0258 50.5297 58.5853L49.7321 57.9821L49.7321 57.9821L49.129 58.7797ZM48.9345 57.3789C48.6014 57.8195 48.6885 58.4466 49.129 58.7797L49.7321 57.9821L49.7321 57.9821L48.9345 57.3789ZM52.9419 51.1896C51.7466 53.3685 50.405 55.4343 48.9345 57.3789L49.7321 57.9821C51.2317 55.999 52.5997 53.8924 53.8187 51.6706L52.9419 51.1896ZM54.2996 50.7938C53.8154 50.5282 53.2076 50.7054 52.9419 51.1896L53.8187 51.6706L54.2996 50.7938ZM59.6564 34.2732C59.6169 33.7223 59.1383 33.3078 58.5874 33.3474L58.659 34.3448L59.6564 34.2732ZM58.4747 43.5236C59.5062 40.4532 59.8749 37.3172 59.6564 34.2732L58.659 34.3448C58.8681 37.2591 58.5154 40.2624 57.5267 43.2051L58.4747 43.5236ZM58.4745 43.524L58.4746 43.5237L57.5268 43.2051L57.5267 43.2053L58.4745 43.524ZM56.2655 49.052C57.0949 47.2721 57.8337 45.4283 58.4745 43.5241L57.5267 43.2051C56.8978 45.074 56.1728 46.8833 55.3591 48.6296L56.2655 49.052ZM54.9367 49.5361C55.4373 49.7693 56.0322 49.5526 56.2655 49.052L55.3591 48.6296L54.9367 49.5361ZM54.4526 48.2073C54.2194 48.7079 54.4361 49.3028 54.9367 49.5361L55.3591 48.6296L54.4526 48.2073ZM56.5789 42.8864C55.9619 44.7199 55.2507 46.4946 54.4526 48.2073L55.3591 48.6296C56.1727 46.8834 56.8977 45.0742 57.5266 43.2054L56.5789 42.8864ZM57.5456 43.13L59.116 33.9302L58.1303 33.7619L56.5599 42.9618L57.5456 43.13ZM58.5874 33.3474C58.0365 33.3869 57.622 33.8655 57.6615 34.4164L58.659 34.3448L58.5874 33.3474ZM58.2452 33.5187L57.7823 34.0533L58.5382 34.7079L59.0011 34.1734L58.2452 33.5187ZM57.6615 34.4164C57.8614 37.201 57.5246 40.0714 56.5789 42.8864L57.5268 43.2049C58.5154 40.2622 58.8681 37.259 58.659 34.3448L57.6615 34.4164ZM57.6643 34.3172L56.5569 42.9823L57.5488 43.1091L58.6562 34.444L57.6643 34.3172ZM59.1246 30.7063C57.3488 22.9192 51.6817 16.2103 43.5544 13.4751L43.2354 14.4229C51.019 17.0424 56.448 23.4668 58.1496 30.9286L59.1246 30.7063ZM58.372 31.9036C58.9104 31.7808 59.2474 31.2447 59.1246 30.7063L58.1496 30.9286L58.1496 30.9286L58.372 31.9036ZM57.1747 31.151C57.2974 31.6894 57.8335 32.0264 58.372 31.9036L58.1496 30.9286L58.1496 30.9286L57.1747 31.151ZM42.9164 15.3707C50.3563 17.8745 55.5472 24.0144 57.1747 31.151L58.1496 30.9286C56.448 23.4668 51.019 17.0424 43.2354 14.4229L42.9164 15.3707ZM23.0263 18.525C28.546 14.4283 35.9112 13.0131 42.9164 15.3707L43.2354 14.4229C35.9069 11.9566 28.2017 13.4385 22.4304 17.722L23.0263 18.525ZM21.6274 18.318C21.9565 18.7615 22.5829 18.8542 23.0263 18.525L22.4304 17.722L22.4304 17.722L21.6274 18.318ZM21.8344 16.919C21.3909 17.2482 21.2982 17.8745 21.6274 18.318L22.4304 17.722L22.4304 17.722L21.8344 16.919ZM43.5544 13.4751C35.9025 10.9 27.8574 12.4488 21.8344 16.919L22.4304 17.722C28.2017 13.4385 35.9069 11.9566 43.2354 14.4229L43.5544 13.4751ZM20.4443 20.778C20.8304 20.3831 20.8233 19.75 20.4285 19.3639L19.7293 20.0789L20.4443 20.778ZM15.4032 29.0273C16.4813 25.8241 18.232 23.0404 20.4443 20.778L19.7293 20.0789C17.4141 22.4465 15.5826 25.3594 14.4555 28.7083L15.4032 29.0273ZM10.5021 33.8121C12.7277 33.1244 14.6097 31.4122 15.4038 29.0256L14.4549 28.7099C13.7677 30.7753 12.1395 32.2595 10.2068 32.8567L10.5021 33.8121ZM9.25139 33.152C9.41445 33.6796 9.9744 33.9752 10.5021 33.8121L10.2068 32.8567L10.2068 32.8567L9.25139 33.152ZM9.91156 31.9013C9.38389 32.0644 9.08832 32.6243 9.25139 33.152L10.2068 32.8567L10.2068 32.8567L9.91156 31.9013ZM13.5063 28.3935C12.926 30.1382 11.5514 31.3946 9.91156 31.9013L10.2068 32.8567C12.1398 32.2594 13.7682 30.7749 14.4552 28.7091L13.5063 28.3935ZM13.5071 28.391L13.5066 28.3927L14.4549 28.71L14.4555 28.7083L13.5071 28.391ZM19.0143 19.3797C16.5959 21.8528 14.6836 24.8953 13.5074 28.3902L14.4552 28.7091C15.5823 25.3599 17.4139 22.4467 19.7293 20.0789L19.0143 19.3797ZM20.4285 19.3639C20.0336 18.9778 19.4005 18.9848 19.0143 19.3797L19.7293 20.0789L19.7293 20.0789L20.4285 19.3639Z" fill="#FF4A00"/>
</svg>
