<svg width="44" height="52" viewBox="0 0 44 52" fill="none" xmlns="http://www.w3.org/2000/svg">
<path fill-rule="evenodd" clip-rule="evenodd" d="M15.3571 5.42147C15.4642 5.44035 15.577 5.43603 15.6885 5.40444C19.0412 4.45743 22.4908 4.28584 25.9414 4.89427C27.7395 5.21134 29.4931 5.73866 31.1533 6.46155C31.5304 6.62551 31.9696 6.45316 32.1339 6.07586C32.2981 5.69857 32.1255 5.25944 31.7481 5.09514C29.9805 4.32545 28.1139 3.76407 26.2002 3.42663C22.5268 2.77891 18.8539 2.96177 15.2835 3.97028C14.8875 4.08214 14.6571 4.49389 14.769 4.88991C14.8493 5.17434 15.0843 5.37337 15.3571 5.42147ZM25.6481 6.5576C24.0071 6.26824 22.3383 6.17011 20.6882 6.26594C20.2773 6.28974 19.9636 6.64221 19.9875 7.05298C20.0114 7.46376 20.3638 7.77751 20.7746 7.7536C22.3094 7.66467 23.862 7.75593 25.3893 8.02524C30.7703 8.97405 35.4151 12.0035 38.4681 16.5555C38.5858 16.7309 38.7648 16.8403 38.9576 16.8743C39.1405 16.9066 39.3356 16.871 39.502 16.7594C39.8438 16.5301 39.9351 16.0672 39.7058 15.7255C38.1151 13.3538 36.1078 11.3547 33.7397 9.78415C31.2869 8.15739 28.5645 7.07184 25.6481 6.5576ZM24.8372 11.1562C20.5714 10.404 16.2347 11.32 12.626 13.7353C9.02812 16.1434 6.53036 19.7849 5.59282 23.9891C5.50571 24.3796 5.1268 24.6296 4.7367 24.5608C4.72554 24.5588 4.71442 24.5566 4.70327 24.5541C4.30169 24.4646 4.04869 24.0663 4.13828 23.6646C5.15965 19.0851 7.8796 15.119 11.797 12.4969C15.7267 9.86666 20.4498 8.8693 25.096 9.68856C25.958 9.84056 26.8141 10.0556 27.6407 10.3274C28.0316 10.4561 28.2442 10.8771 28.1155 11.2681C27.9869 11.659 27.5659 11.8723 27.1748 11.743C26.4158 11.4934 25.6294 11.2959 24.8372 11.1562ZM30.7258 11.6721C30.3657 11.4734 29.9122 11.6041 29.7134 11.9646C29.5146 12.3249 29.6455 12.7781 30.0058 12.9768C31.5263 13.8159 32.9041 14.8858 34.1009 16.1574C34.2153 16.2789 34.3609 16.3534 34.5135 16.3803C34.7372 16.4198 34.9761 16.3569 35.1542 16.1892C35.454 15.9072 35.4681 15.4355 35.1861 15.1359C33.8829 13.7516 32.3823 12.5861 30.7258 11.6721ZM24.5439 12.8195C24.2694 12.7711 23.9904 12.7298 23.7144 12.6967C23.3058 12.6476 22.9348 12.9391 22.8858 13.3476C22.8368 13.7563 23.1277 14.1289 23.5369 14.1762C23.7857 14.2061 24.0374 14.2434 24.2851 14.2871C31.6493 15.5856 36.5842 22.6332 35.2857 29.9975L34.7187 33.213C34.6472 33.6184 34.9178 34.0048 35.3231 34.0762C35.7284 34.1477 36.1148 33.8772 36.1863 33.4718L36.7533 30.2564C38.1946 22.0829 32.7174 14.2607 24.5439 12.8195ZM28.2404 19.303C28.1346 19.2844 28.0313 19.2426 27.938 19.1761C27.0919 18.5735 26.1626 18.1038 25.1758 17.7798C24.7848 17.6514 24.572 17.2303 24.7003 16.8394C24.8287 16.4485 25.249 16.2358 25.6407 16.3639C26.7703 16.7347 27.8341 17.2724 28.8026 17.9623C29.1378 18.2009 29.216 18.6663 28.9772 19.0014C28.805 19.2433 28.5146 19.3514 28.2404 19.303ZM10.8424 26.4443C10.4372 26.3728 10.1665 25.9864 10.238 25.581C10.7364 22.7547 12.2438 20.2055 14.4824 18.4032C16.6992 16.6184 19.4758 15.6852 22.3009 15.7751C22.7117 15.7885 23.035 16.1322 23.0219 16.5436C23.0088 16.9548 22.6648 17.2777 22.2534 17.2646C19.7843 17.1859 17.3564 18.0025 15.417 19.564C13.4594 21.14 12.1414 23.3688 11.7057 25.8398C11.6342 26.2452 11.2477 26.5157 10.8424 26.4443ZM30.4915 29.1523C31.3238 24.4316 28.1605 19.9138 23.4398 19.0815C18.7191 18.2491 14.2014 21.4124 13.369 26.1331L12.8571 29.0363C12.5134 30.9853 11.4654 32.73 9.9061 33.9487L7.43574 35.8797C7.1115 36.1331 7.05415 36.6014 7.30758 36.9257C7.56094 37.25 8.02935 37.3071 8.35356 37.0539L10.8239 35.1229C12.6738 33.6771 13.917 31.6073 14.3247 29.2951L14.8366 26.3919C15.5263 22.4804 19.2696 19.8594 23.181 20.5491C27.0925 21.2388 29.7135 24.982 29.0238 28.8935L28.4568 32.109C27.4224 37.9754 24.2579 43.2137 19.5462 46.8586L18.6693 47.5371C18.3438 47.7889 18.2841 48.257 18.5359 48.5825C18.654 48.735 18.8195 48.8292 18.9956 48.8602C19.1952 48.8954 19.4082 48.8496 19.5811 48.7158L20.458 48.0373C25.4635 44.1649 28.8254 38.6001 29.9244 32.3678L30.4914 29.1523L30.4915 29.1523ZM22.8877 22.2124C25.882 22.7404 27.8885 25.6059 27.3605 28.6002L26.7935 31.8157C25.8322 37.2675 22.8914 42.1354 18.5128 45.5228L15.344 47.9743C15.1711 48.1081 14.958 48.154 14.7584 48.1188C14.5823 48.0877 14.4168 47.9937 14.2987 47.841C14.0469 47.5155 14.1066 47.0474 14.4322 46.7956L17.601 44.3441C21.6858 41.184 24.4292 36.6427 25.326 31.5569L25.8929 28.3414C26.2782 26.1564 24.8141 24.0654 22.629 23.6801C20.444 23.2948 18.353 24.759 17.9677 26.944L17.4558 29.8472C16.9114 32.9342 15.2515 35.6974 12.7819 37.6278L10.0383 39.7724C9.71399 40.0256 9.24577 39.9685 8.99232 39.6442C8.73888 39.3199 8.79623 38.8516 9.12047 38.5982L11.8641 36.4536C14.0432 34.7503 15.5078 32.3122 15.988 29.5884L16.4999 26.6852C17.0279 23.6909 19.8934 21.6845 22.8877 22.2124ZM24.2295 28.0481L23.6625 31.2636C22.8389 35.9348 20.3191 40.1058 16.5673 43.0082L12.8117 45.9137C12.6388 46.0474 12.4258 46.0933 12.2262 46.0581C12.05 46.0271 11.8845 45.933 11.7665 45.7803C11.5147 45.4549 11.5744 44.9867 11.8999 44.735L15.6555 41.8295C19.1134 39.1544 21.4357 35.3102 22.1949 31.0048L22.7619 27.7893C22.8427 27.3308 22.5354 26.8919 22.0769 26.811C21.6183 26.7302 21.1794 27.0375 21.0986 27.4961L20.5866 30.3992C19.9057 34.261 17.8292 37.7177 14.7398 40.1327L10.8806 43.1492C10.5562 43.4027 10.088 43.3453 9.8346 43.0211C9.58117 42.6967 9.63852 42.2285 9.96276 41.975L13.8219 38.9585C16.621 36.7707 18.5021 33.639 19.119 30.1405L19.6309 27.2373C19.8545 25.9694 21.0678 25.1198 22.3356 25.3434C23.6035 25.5669 24.4531 26.7803 24.2295 28.0481ZM11.1937 28.743C11.2652 28.3377 10.9946 27.9513 10.5893 27.8798C10.1841 27.8083 9.79758 28.0789 9.72611 28.4842C9.51905 29.6585 8.88772 30.7095 7.94835 31.4438L5.75096 33.1615C5.42673 33.4148 5.36938 33.8831 5.62282 34.2074C5.74087 34.3584 5.90534 34.4515 6.08029 34.4823C6.28106 34.5177 6.4956 34.471 6.66879 34.3356L8.86617 32.618C10.096 31.6566 10.9226 30.2805 11.1937 28.743ZM29.5269 39.2704C29.6988 38.8966 30.1409 38.7329 30.5151 38.9042C30.889 39.076 31.053 39.5184 30.8813 39.8923C30.4028 40.9342 29.8557 41.9572 29.2549 42.9333C29.09 43.2012 28.7828 43.3281 28.4907 43.2766C28.4007 43.2608 28.3123 43.228 28.2297 43.1773C27.8792 42.9616 27.77 42.5026 27.9858 42.1521C28.5551 41.2273 29.0735 40.2577 29.5269 39.2704ZM31.2727 20.3246C31.0191 20.0003 30.5507 19.9434 30.2266 20.197C29.9026 20.4505 29.8454 20.9189 30.099 21.2429C31.9154 23.5639 32.6646 26.5536 32.1547 29.4455L31.5877 32.661C31.3725 33.8814 31.0715 35.0964 30.693 36.2722C30.5669 36.664 30.7822 37.0837 31.1739 37.2098C31.2071 37.2205 31.2404 37.2287 31.2738 37.2346C31.6346 37.2982 31.9961 37.0873 32.1115 36.7288C32.5108 35.4884 32.8284 34.2069 33.0554 32.9197L33.6223 29.7043C34.2056 26.3968 33.3492 22.978 31.2727 20.3246ZM16.2598 15.3286C16.1165 15.3949 15.9629 15.4118 15.8184 15.3863C15.5862 15.3453 15.3772 15.1952 15.2709 14.9648C15.0981 14.5913 15.261 14.1485 15.6345 13.9758C17.1558 13.2725 18.7686 12.8312 20.4284 12.6642C20.8376 12.6234 21.2032 12.9217 21.2444 13.3311C21.2856 13.7405 20.987 14.1059 20.5775 14.1471C19.083 14.2975 17.6304 14.6949 16.2598 15.3286ZM8.06278 28.1909L8.57469 25.2878C9.17662 21.874 11.0427 18.8509 13.8291 16.775C14.1591 16.5291 14.2274 16.0623 13.9815 15.7323C13.7357 15.4022 13.2688 15.3341 12.9388 15.5799C9.84633 17.8837 7.77523 21.2395 7.10705 25.029L6.59514 27.9322C6.5247 28.3317 6.30993 28.6891 5.9905 28.9388L4.90838 29.7846C4.58414 30.038 4.52679 30.5063 4.78024 30.8306C4.89818 30.9816 5.06275 31.0747 5.23769 31.1055C5.43847 31.1409 5.6529 31.0943 5.82618 30.9589L6.9083 30.1131C7.51831 29.6362 7.92832 28.9535 8.06278 28.1909ZM37.2906 17.8376C38.6787 20.0104 39.5768 22.3968 39.9599 24.9305C40.0214 25.3374 39.7414 25.7171 39.3346 25.7786C39.2524 25.791 39.1712 25.7895 39.0936 25.7759C38.7873 25.7218 38.5355 25.478 38.4864 25.1533C38.1347 22.8272 37.3098 20.6358 36.0347 18.64C35.8132 18.2932 35.9147 17.8325 36.2615 17.6108C36.6082 17.3892 37.0689 17.4908 37.2906 17.8376ZM7.97761 13.0258C7.81931 12.9979 7.66891 12.9188 7.5532 12.79C7.27818 12.484 7.30334 12.0128 7.60953 11.7376C10.3623 9.26417 13.7177 7.53457 17.3129 6.73584C17.7145 6.64634 18.1127 6.89996 18.2019 7.30168C18.2912 7.70341 18.0378 8.10141 17.6361 8.19068C14.2906 8.93398 11.1679 10.5438 8.60548 12.8463C8.42818 13.0056 8.19551 13.0642 7.97761 13.0258ZM36.0926 9.39831C35.4397 8.88963 34.7519 8.41123 34.0485 7.97658C33.6985 7.7603 33.59 7.30101 33.8063 6.95094C34.0226 6.60099 34.4817 6.49248 34.8319 6.70888C35.581 7.17176 36.3132 7.68112 37.0084 8.22266C37.333 8.47562 37.3911 8.94378 37.1382 9.26843C36.9627 9.49383 36.6834 9.59076 36.4204 9.54439C36.3046 9.52396 36.1918 9.47573 36.0926 9.39831Z" fill="url(#paint0_linear)"/>
<defs>
<linearGradient id="paint0_linear" x1="8.26367" y1="0.263947" x2="0.275856" y2="45.5651" gradientUnits="userSpaceOnUse">
<stop stop-color="#FFBA10"/>
<stop offset="1" stop-color="#FC7712"/>
</linearGradient>
</defs>
</svg>
