<svg width="32" height="43" viewBox="0 0 32 43" fill="none" xmlns="http://www.w3.org/2000/svg">
<path fill-rule="evenodd" clip-rule="evenodd" d="M30.9147 15.9527H28.2648V12.4076C28.2648 5.566 22.7177 0 15.899 0C9.08031 0 3.53314 5.566 3.53314 12.4076V15.9527H0.883305C0.395073 15.9527 0 16.3491 0 16.839V38.9956C0 40.9507 1.58452 42.5405 3.53314 42.5405H28.2649C30.2135 42.5405 31.798 40.9507 31.798 38.9955V16.839C31.798 16.3491 31.4029 15.9527 30.9147 15.9527ZM18.5437 34.4664C18.5713 34.7165 18.4911 34.9675 18.3238 35.1554C18.1564 35.3431 17.9166 35.4505 17.6656 35.4505H14.1325C13.8815 35.4505 13.6417 35.3431 13.4743 35.1554C13.307 34.9676 13.2267 34.7166 13.2544 34.4664L13.8116 29.4388C12.9068 28.7784 12.3659 27.7338 12.3659 26.5878C12.3659 24.6327 13.9505 23.0428 15.8991 23.0428C17.8477 23.0428 19.4322 24.6326 19.4322 26.5878C19.4322 27.7338 18.8914 28.7784 17.9866 29.4388L18.5437 34.4664ZM8.8328 12.4076V15.9527H22.9652V12.4076C22.9652 8.49822 19.7952 5.31757 15.899 5.31757C12.0027 5.31757 8.8328 8.49822 8.8328 12.4076Z" fill="url(#paint0_linear)"/>
<defs>
<linearGradient id="paint0_linear" x1="0" y1="0" x2="0" y2="42.5405" gradientUnits="userSpaceOnUse">
<stop stop-color="#FFBA10"/>
<stop offset="1" stop-color="#FC7712"/>
</linearGradient>
</defs>
</svg>
