<svg width="312" height="39" viewBox="0 0 312 39" fill="none" xmlns="http://www.w3.org/2000/svg">
<path d="M27.7938 30.1V38H38.1438V0.699997H27.3438C27.1104 0.699997 26.6938 0.749998 26.0938 0.849998C25.4938 0.949999 24.7771 1.23333 23.9438 1.7C23.1104 2.16667 22.1938 2.88333 21.1938 3.85C20.2271 4.78333 19.2271 6.1 18.1938 7.8L0.09375 38H11.8438L16.3438 30.1H27.7938ZM20.1438 23.35L27.9938 9.3V23.35H20.1438ZM67.2012 38C68.2678 38 69.2845 37.8167 70.2512 37.45C71.2512 37.05 72.1845 36.5333 73.0512 35.9C73.9178 35.2333 74.7178 34.4833 75.4512 33.65C76.1845 32.7833 76.8512 31.9 77.4512 31C77.8178 30.4667 78.2178 29.65 78.6512 28.55C79.0845 27.4167 79.5345 26.15 80.0012 24.75C80.4678 23.35 80.9178 21.8667 81.3512 20.3C81.7845 18.7333 82.1678 17.2333 82.5012 15.8C82.8678 14.3667 83.1512 13.0667 83.3512 11.9C83.5512 10.7333 83.6512 9.81666 83.6512 9.15C83.6512 8.15 83.4678 7.18333 83.1012 6.25C82.7345 5.31666 82.2178 4.5 81.5512 3.8C80.4178 2.63333 79.1012 1.83333 77.6012 1.4C76.1345 0.933331 74.6012 0.699997 73.0012 0.699997H52.6012L41.6512 38.05L67.2012 38ZM55.0012 30.4L61.6012 7.45H70.1512C70.6178 7.45 71.0345 7.56667 71.4012 7.8C71.7678 8 72.0845 8.28333 72.3512 8.65C72.6178 8.98333 72.8178 9.36667 72.9512 9.8C73.1178 10.2333 73.2012 10.65 73.2012 11.05C73.2012 11.45 73.0845 12.1 72.8512 13C72.6512 13.8667 72.3845 14.8667 72.0512 16C71.7178 17.1333 71.3512 18.3333 70.9512 19.6C70.5512 20.8333 70.1512 22.0167 69.7512 23.15C69.3512 24.25 68.9845 25.2333 68.6512 26.1C68.3178 26.9333 68.0678 27.5 67.9012 27.8C67.6012 28.3 67.3012 28.7167 67.0012 29.05C66.7345 29.3833 66.3845 29.65 65.9512 29.85C65.5512 30.05 65.0345 30.2 64.4012 30.3C63.8012 30.3667 63.0512 30.4 62.1512 30.4H55.0012ZM120.637 12.55L112.937 38H124.137L135.287 0.749997H125.237C123.937 0.749997 122.67 1.06666 121.437 1.7C120.203 2.3 119.153 3.13333 118.287 4.2L111.137 13.2L109.487 4.65C109.353 4.05 109.103 3.51666 108.737 3.05C108.403 2.58333 107.987 2.18333 107.487 1.85C106.987 1.48333 106.437 1.21667 105.837 1.05C105.237 0.849997 104.637 0.749997 104.037 0.749997H92.8367L81.6367 38H92.6867L100.487 12.1L103.887 29.9H106.337L120.637 12.55ZM171.328 8.8V7.45C170.894 5.65 170.078 4.28333 168.878 3.35C167.678 2.38333 166.294 1.68333 164.728 1.25C163.194 0.816666 161.561 0.566665 159.828 0.499997C158.128 0.433331 156.544 0.399998 155.078 0.399998C152.111 0.399998 149.578 0.633332 147.478 1.1C145.378 1.53333 143.628 2.11667 142.228 2.85C140.861 3.55 139.778 4.33333 138.978 5.2C138.211 6.06666 137.661 6.91666 137.328 7.75C136.694 9.28333 136.061 10.9333 135.428 12.7C134.794 14.4333 134.194 16.2167 133.628 18.05C133.094 19.8833 132.611 21.7333 132.178 23.6C131.778 25.4333 131.494 27.2167 131.328 28.95C131.194 30.45 131.311 31.7333 131.678 32.8C132.078 33.8333 132.661 34.7167 133.428 35.45C134.194 36.15 135.094 36.7167 136.128 37.15C137.194 37.55 138.328 37.85 139.528 38.05C140.728 38.2833 141.944 38.4167 143.178 38.45C144.411 38.5167 145.594 38.55 146.728 38.55C148.294 38.55 149.844 38.4833 151.378 38.35C152.944 38.2167 154.511 38.0167 156.078 37.75C158.011 37.4167 159.794 36.6667 161.428 35.5C163.061 34.3333 164.294 32.8333 165.128 31C166.694 27.4 167.978 23.7667 168.978 20.1C169.978 16.4 170.761 12.6333 171.328 8.8ZM154.328 27.9C154.161 28.6667 153.794 29.2667 153.228 29.7C152.661 30.1333 151.994 30.45 151.228 30.65C150.494 30.85 149.711 30.9833 148.878 31.05C148.078 31.0833 147.361 31.1 146.728 31.1C146.061 31.1667 145.444 31.1167 144.878 30.95C144.311 30.7833 143.844 30.5333 143.478 30.2C143.111 29.8333 142.844 29.4 142.678 28.9C142.544 28.3667 142.561 27.7667 142.728 27.1C143.328 24.2667 144.061 21.4667 144.928 18.7C145.794 15.9333 146.728 13.25 147.728 10.65C147.961 10.0167 148.328 9.51666 148.828 9.15C149.328 8.75 149.878 8.45 150.478 8.25C151.111 8.01666 151.761 7.86666 152.428 7.8C153.094 7.73333 153.711 7.7 154.278 7.7C154.778 7.7 155.378 7.73333 156.078 7.8C156.778 7.86666 157.411 8.01666 157.978 8.25C158.578 8.45 159.044 8.78333 159.378 9.25C159.711 9.68333 159.794 10.2833 159.628 11.05C159.061 13.95 158.328 16.8 157.428 19.6C156.528 22.3667 155.494 25.1333 154.328 27.9ZM211.448 0.699997H192.248V0.599999C189.348 0.566666 186.914 0.833332 184.948 1.4C183.014 1.96666 181.331 2.81666 179.898 3.95C178.498 5.05 177.264 6.41667 176.198 8.05C175.131 9.68333 174.048 11.55 172.948 13.65C172.881 13.8833 172.964 14.0333 173.198 14.1C173.464 14.1667 173.681 14.1 173.848 13.9C174.381 13.2333 174.948 12.6167 175.548 12.05C176.148 11.4833 176.948 11 177.948 10.6C178.981 10.2 180.298 9.91667 181.898 9.75C183.531 9.55 185.648 9.48333 188.248 9.55L179.548 38H190.848L199.448 9.55H208.748L211.448 0.699997ZM206.49 38H217.79L229.04 0.749997H217.89L206.49 38ZM265.664 8.8V7.45C265.23 5.65 264.414 4.28333 263.214 3.35C262.014 2.38333 260.63 1.68333 259.064 1.25C257.53 0.816666 255.897 0.566665 254.164 0.499997C252.464 0.433331 250.88 0.399998 249.414 0.399998C246.447 0.399998 243.914 0.633332 241.814 1.1C239.714 1.53333 237.964 2.11667 236.564 2.85C235.197 3.55 234.114 4.33333 233.314 5.2C232.547 6.06666 231.997 6.91666 231.664 7.75C231.03 9.28333 230.397 10.9333 229.764 12.7C229.13 14.4333 228.53 16.2167 227.964 18.05C227.43 19.8833 226.947 21.7333 226.514 23.6C226.114 25.4333 225.83 27.2167 225.664 28.95C225.53 30.45 225.647 31.7333 226.014 32.8C226.414 33.8333 226.997 34.7167 227.764 35.45C228.53 36.15 229.43 36.7167 230.464 37.15C231.53 37.55 232.664 37.85 233.864 38.05C235.064 38.2833 236.28 38.4167 237.514 38.45C238.747 38.5167 239.93 38.55 241.064 38.55C242.63 38.55 244.18 38.4833 245.714 38.35C247.28 38.2167 248.847 38.0167 250.414 37.75C252.347 37.4167 254.13 36.6667 255.764 35.5C257.397 34.3333 258.63 32.8333 259.464 31C261.03 27.4 262.314 23.7667 263.314 20.1C264.314 16.4 265.097 12.6333 265.664 8.8ZM248.664 27.9C248.497 28.6667 248.13 29.2667 247.564 29.7C246.997 30.1333 246.33 30.45 245.564 30.65C244.83 30.85 244.047 30.9833 243.214 31.05C242.414 31.0833 241.697 31.1 241.064 31.1C240.397 31.1667 239.78 31.1167 239.214 30.95C238.647 30.7833 238.18 30.5333 237.814 30.2C237.447 29.8333 237.18 29.4 237.014 28.9C236.88 28.3667 236.897 27.7667 237.064 27.1C237.664 24.2667 238.397 21.4667 239.264 18.7C240.13 15.9333 241.064 13.25 242.064 10.65C242.297 10.0167 242.664 9.51666 243.164 9.15C243.664 8.75 244.214 8.45 244.814 8.25C245.447 8.01666 246.097 7.86666 246.764 7.8C247.43 7.73333 248.047 7.7 248.614 7.7C249.114 7.7 249.714 7.73333 250.414 7.8C251.114 7.86666 251.747 8.01666 252.314 8.25C252.914 8.45 253.38 8.78333 253.714 9.25C254.047 9.68333 254.13 10.2833 253.964 11.05C253.397 13.95 252.664 16.8 251.764 19.6C250.864 22.3667 249.83 25.1333 248.664 27.9ZM290.395 4.65C290.262 4.05 290.012 3.51666 289.645 3.05C289.312 2.58333 288.895 2.18333 288.395 1.85C287.895 1.48333 287.345 1.21667 286.745 1.05C286.145 0.849997 285.545 0.749997 284.945 0.749997H273.745L262.545 38H273.595L281.395 12.1L286.645 38H299.945L311.095 0.749997H300.395L293.795 22.35L290.395 4.65Z" fill="url(#paint0_linear)"/>
<defs>
<linearGradient id="paint0_linear" x1="0" y1="-12" x2="0" y2="47" gradientUnits="userSpaceOnUse">
<stop stop-color="#FFBA10"/>
<stop offset="1" stop-color="#FC7712"/>
</linearGradient>
</defs>
</svg>
