<svg width="36" height="21" viewBox="0 0 36 21" fill="none" xmlns="http://www.w3.org/2000/svg">
<rect x="0.5" y="0.5" width="35" height="20" rx="3.5" stroke="#D6D6D6"/>
<path fill-rule="evenodd" clip-rule="evenodd" d="M25.579 8.00005C25.579 10.7369 23.3684 12.9737 20.6053 12.9737C17.8684 12.9737 15.6316 10.7369 15.6316 8.00005C15.6316 5.26321 17.8421 3.02637 20.579 3.02637C23.3684 3.02637 25.579 5.26321 25.579 8.00005Z" fill="#FFB600"/>
<path fill-rule="evenodd" clip-rule="evenodd" d="M20.6053 3.02637C23.3421 3.02637 25.579 5.26321 25.579 8.00005C25.579 10.7369 23.3684 12.9737 20.6053 12.9737C17.8684 12.9737 15.6316 10.7369 15.6316 8.00005" fill="#F7981D"/>
<path fill-rule="evenodd" clip-rule="evenodd" d="M20.6053 3.02637C23.3421 3.02637 25.579 5.26321 25.579 8.00005C25.579 10.7369 23.3684 12.9737 20.6053 12.9737" fill="#FF8500"/>
<path fill-rule="evenodd" clip-rule="evenodd" d="M13.9211 3.02637C11.2105 3.05268 9 5.26321 9 8.00005C9 10.7369 11.2105 12.9737 13.9737 12.9737C15.2632 12.9737 16.4211 12.4737 17.3158 11.6843C17.5 11.5264 17.6579 11.3422 17.8158 11.1579H16.7895C16.6579 11.0001 16.5263 10.8158 16.4211 10.6579H18.1842C18.2895 10.5001 18.3947 10.3158 18.4737 10.1316H16.1316C16.0526 9.97374 15.9737 9.78953 15.9211 9.60531H18.6579C18.8158 9.10531 18.9211 8.579 18.9211 8.02637C18.9211 7.65795 18.8684 7.31584 18.8158 6.97374H15.7632C15.7895 6.78953 15.8421 6.63163 15.8947 6.44742H18.6316C18.5789 6.26321 18.5 6.079 18.4211 5.9211H16.1053C16.1842 5.73689 16.2895 5.579 16.3947 5.39479H18.1579C18.0526 5.21058 17.9211 5.02637 17.7632 4.86847H16.7895C16.9474 4.68426 17.1053 4.52637 17.2895 4.36847C16.4211 3.55268 15.2368 3.079 13.9474 3.079C13.9474 3.02637 13.9474 3.02637 13.9211 3.02637Z" fill="#FF5050"/>
<path fill-rule="evenodd" clip-rule="evenodd" d="M9 8.00003C9 10.7369 11.2105 12.9737 13.9737 12.9737C15.2632 12.9737 16.4211 12.4737 17.3158 11.6842C17.5 11.5263 17.6579 11.3421 17.8158 11.1579H16.7895C16.6579 11 16.5263 10.8158 16.4211 10.6579H18.1842C18.2895 10.5 18.3947 10.3158 18.4737 10.1316H16.1316C16.0526 9.97372 15.9737 9.78951 15.9211 9.6053H18.6579C18.8158 9.1053 18.9211 8.57898 18.9211 8.02635C18.9211 7.65793 18.8684 7.31582 18.8158 6.97372H15.7632C15.7895 6.78951 15.8421 6.63161 15.8947 6.4474H18.6316C18.5789 6.26319 18.5 6.07898 18.4211 5.92108H16.1053C16.1842 5.73687 16.2895 5.57898 16.3947 5.39477H18.1579C18.0526 5.21056 17.9211 5.02635 17.7632 4.86845H16.7895C16.9474 4.68424 17.1053 4.52635 17.2895 4.36845C16.4211 3.55266 15.2368 3.07898 13.9474 3.07898H13.9211" fill="#E52836"/>
<path fill-rule="evenodd" clip-rule="evenodd" d="M13.9737 12.9737C15.2632 12.9737 16.4211 12.4737 17.3158 11.6842C17.5 11.5263 17.6579 11.3421 17.8158 11.1579H16.7895C16.6579 11 16.5263 10.8158 16.4211 10.6579H18.1842C18.2895 10.5 18.3948 10.3158 18.4737 10.1316H16.1316C16.0527 9.97372 15.9737 9.78951 15.9211 9.6053H18.6579C18.8158 9.1053 18.9211 8.57898 18.9211 8.02635C18.9211 7.65793 18.8684 7.31582 18.8158 6.97372H15.7632C15.7895 6.78951 15.8421 6.63161 15.8948 6.4474H18.6316C18.579 6.26319 18.5 6.07898 18.4211 5.92108H16.1053C16.1842 5.73687 16.2895 5.57898 16.3948 5.39477H18.1579C18.0527 5.21056 17.9211 5.02635 17.7632 4.86845H16.7895C16.9474 4.68424 17.1053 4.52635 17.2895 4.36845C16.4211 3.55266 15.2369 3.07898 13.9474 3.07898H13.9211" fill="#CB2026"/>
<path d="M3.34802 18V15H4.18802L4.26002 15.366H4.28402C4.40402 15.25 4.53202 15.148 4.66802 15.06C4.80802 14.972 4.98002 14.928 5.18402 14.928C5.38802 14.928 5.55602 14.97 5.68802 15.054C5.82402 15.134 5.93202 15.252 6.01202 15.408C6.13602 15.28 6.27002 15.168 6.41402 15.072C6.55802 14.976 6.73202 14.928 6.93602 14.928C7.26402 14.928 7.50402 15.04 7.65602 15.264C7.80802 15.484 7.88402 15.78 7.88402 16.152V18H6.85202V16.284C6.85202 16.092 6.82802 15.964 6.78002 15.9C6.73202 15.836 6.65602 15.804 6.55202 15.804C6.42402 15.804 6.28402 15.88 6.13202 16.032V18H5.10002V16.284C5.10002 16.092 5.07602 15.964 5.02802 15.9C4.98002 15.836 4.90402 15.804 4.80002 15.804C4.67202 15.804 4.53202 15.88 4.38002 16.032V18H3.34802Z" fill="#A9A9A9"/>
<path d="M9.33701 18.072C9.19701 18.072 9.07101 18.048 8.95901 18C8.84701 17.948 8.75101 17.88 8.67101 17.796C8.59501 17.712 8.53701 17.614 8.49701 17.502C8.45701 17.39 8.43701 17.272 8.43701 17.148C8.43701 16.836 8.56501 16.592 8.82101 16.416C9.07701 16.236 9.49301 16.116 10.069 16.056C10.045 15.848 9.90501 15.744 9.64901 15.744C9.54101 15.744 9.42701 15.766 9.30701 15.81C9.18701 15.85 9.04901 15.912 8.89301 15.996L8.53301 15.324C8.74501 15.196 8.95901 15.098 9.17501 15.03C9.39101 14.962 9.61701 14.928 9.85301 14.928C10.241 14.928 10.545 15.04 10.765 15.264C10.989 15.484 11.101 15.84 11.101 16.332V18H10.261L10.189 17.712H10.165C10.045 17.82 9.91701 17.908 9.78101 17.976C9.64901 18.04 9.50101 18.072 9.33701 18.072ZM9.69701 17.28C9.78101 17.28 9.84901 17.262 9.90101 17.226C9.95701 17.186 10.013 17.136 10.069 17.076V16.668C9.82101 16.704 9.65101 16.758 9.55901 16.83C9.46701 16.902 9.42101 16.98 9.42101 17.064C9.42101 17.208 9.51301 17.28 9.69701 17.28Z" fill="#A9A9A9"/>
<path d="M12.6978 18.072C12.5058 18.072 12.3018 18.034 12.0858 17.958C11.8738 17.882 11.6898 17.78 11.5338 17.652L11.9898 17.016C12.2618 17.216 12.5058 17.316 12.7218 17.316C12.8298 17.316 12.9058 17.302 12.9498 17.274C12.9978 17.242 13.0218 17.196 13.0218 17.136C13.0218 17.096 13.0058 17.062 12.9738 17.034C12.9418 17.002 12.8978 16.974 12.8418 16.95C12.7898 16.922 12.7298 16.896 12.6618 16.872C12.5938 16.848 12.5218 16.82 12.4458 16.788C12.3578 16.752 12.2678 16.71 12.1758 16.662C12.0878 16.61 12.0078 16.548 11.9358 16.476C11.8638 16.404 11.8038 16.322 11.7558 16.23C11.7118 16.134 11.6898 16.024 11.6898 15.9C11.6898 15.752 11.7178 15.618 11.7738 15.498C11.8338 15.378 11.9158 15.276 12.0198 15.192C12.1238 15.108 12.2478 15.044 12.3918 15C12.5398 14.952 12.7018 14.928 12.8778 14.928C13.1258 14.928 13.3378 14.97 13.5138 15.054C13.6938 15.134 13.8498 15.224 13.9818 15.324L13.5258 15.936C13.4178 15.856 13.3118 15.794 13.2078 15.75C13.1038 15.706 13.0058 15.684 12.9138 15.684C12.7378 15.684 12.6498 15.74 12.6498 15.852C12.6498 15.892 12.6638 15.926 12.6918 15.954C12.7238 15.982 12.7658 16.008 12.8178 16.032C12.8698 16.056 12.9298 16.08 12.9978 16.104C13.0658 16.124 13.1378 16.148 13.2138 16.176C13.3018 16.208 13.3918 16.248 13.4838 16.296C13.5758 16.344 13.6578 16.404 13.7298 16.476C13.8058 16.544 13.8658 16.628 13.9098 16.728C13.9578 16.824 13.9818 16.94 13.9818 17.076C13.9818 17.216 13.9538 17.348 13.8978 17.472C13.8418 17.592 13.7598 17.698 13.6518 17.79C13.5438 17.878 13.4098 17.948 13.2498 18C13.0898 18.048 12.9058 18.072 12.6978 18.072Z" fill="#A9A9A9"/>
<path d="M15.6055 18.072C15.4095 18.072 15.2415 18.044 15.1015 17.988C14.9655 17.928 14.8515 17.844 14.7595 17.736C14.6715 17.628 14.6055 17.5 14.5615 17.352C14.5215 17.2 14.5015 17.032 14.5015 16.848V15.804H14.1055V15.036L14.5615 15L14.6815 14.22H15.5335V15H16.2175V15.804H15.5335V16.83C15.5335 16.998 15.5695 17.114 15.6415 17.178C15.7135 17.238 15.7975 17.268 15.8935 17.268C15.9415 17.268 15.9875 17.264 16.0315 17.256C16.0795 17.244 16.1215 17.232 16.1575 17.22L16.3135 17.964C16.2335 17.988 16.1375 18.012 16.0255 18.036C15.9135 18.06 15.7735 18.072 15.6055 18.072Z" fill="#A9A9A9"/>
<path d="M18.0467 18.072C17.8267 18.072 17.6227 18.038 17.4347 17.97C17.2467 17.898 17.0827 17.796 16.9427 17.664C16.8067 17.528 16.6987 17.362 16.6187 17.166C16.5387 16.97 16.4987 16.748 16.4987 16.5C16.4987 16.256 16.5387 16.038 16.6187 15.846C16.7027 15.65 16.8107 15.484 16.9427 15.348C17.0787 15.212 17.2327 15.108 17.4047 15.036C17.5767 14.964 17.7547 14.928 17.9387 14.928C18.1587 14.928 18.3507 14.966 18.5147 15.042C18.6787 15.118 18.8147 15.222 18.9227 15.354C19.0307 15.486 19.1107 15.64 19.1627 15.816C19.2187 15.992 19.2467 16.18 19.2467 16.38C19.2467 16.472 19.2407 16.558 19.2287 16.638C19.2207 16.718 19.2127 16.776 19.2047 16.812H17.4947C17.5427 16.992 17.6287 17.118 17.7527 17.19C17.8767 17.258 18.0227 17.292 18.1907 17.292C18.2947 17.292 18.3947 17.278 18.4907 17.25C18.5907 17.218 18.6947 17.172 18.8027 17.112L19.1387 17.724C18.9747 17.84 18.7927 17.928 18.5927 17.988C18.3967 18.044 18.2147 18.072 18.0467 18.072ZM17.4827 16.14H18.3707C18.3707 16.024 18.3407 15.924 18.2807 15.84C18.2247 15.752 18.1187 15.708 17.9627 15.708C17.8467 15.708 17.7447 15.742 17.6567 15.81C17.5727 15.878 17.5147 15.988 17.4827 16.14Z" fill="#A9A9A9"/>
<path d="M19.8129 18V15H20.6529L20.7249 15.516H20.7489C20.8609 15.312 20.9929 15.164 21.1449 15.072C21.3009 14.976 21.4529 14.928 21.6009 14.928C21.6929 14.928 21.7669 14.934 21.8229 14.946C21.8789 14.954 21.9289 14.968 21.9729 14.988L21.8049 15.876C21.7489 15.864 21.6949 15.854 21.6429 15.846C21.5949 15.834 21.5369 15.828 21.4689 15.828C21.3609 15.828 21.2469 15.866 21.1269 15.942C21.0109 16.014 20.9169 16.144 20.8449 16.332V18H19.8129Z" fill="#A9A9A9"/>
<path d="M23.6181 18.072C23.4061 18.072 23.2081 18.038 23.0241 17.97C22.8401 17.898 22.6801 17.796 22.5441 17.664C22.4081 17.528 22.3001 17.362 22.2201 17.166C22.1441 16.97 22.1061 16.748 22.1061 16.5C22.1061 16.252 22.1501 16.03 22.2381 15.834C22.3261 15.638 22.4441 15.474 22.5921 15.342C22.7401 15.206 22.9101 15.104 23.1021 15.036C23.2981 14.964 23.5021 14.928 23.7141 14.928C23.8941 14.928 24.0561 14.956 24.2001 15.012C24.3441 15.068 24.4741 15.144 24.5901 15.24L24.1101 15.9C24.0421 15.844 23.9821 15.806 23.9301 15.786C23.8821 15.766 23.8301 15.756 23.7741 15.756C23.5821 15.756 23.4321 15.824 23.3241 15.96C23.2161 16.092 23.1621 16.272 23.1621 16.5C23.1621 16.728 23.2161 16.91 23.3241 17.046C23.4361 17.178 23.5741 17.244 23.7381 17.244C23.8221 17.244 23.9041 17.226 23.9841 17.19C24.0681 17.154 24.1461 17.108 24.2181 17.052L24.6141 17.724C24.4621 17.856 24.2961 17.948 24.1161 18C23.9401 18.048 23.7741 18.072 23.6181 18.072Z" fill="#A9A9A9"/>
<path d="M25.8136 18.072C25.6736 18.072 25.5476 18.048 25.4356 18C25.3236 17.948 25.2276 17.88 25.1476 17.796C25.0716 17.712 25.0136 17.614 24.9736 17.502C24.9336 17.39 24.9136 17.272 24.9136 17.148C24.9136 16.836 25.0416 16.592 25.2976 16.416C25.5536 16.236 25.9696 16.116 26.5456 16.056C26.5216 15.848 26.3816 15.744 26.1256 15.744C26.0176 15.744 25.9036 15.766 25.7836 15.81C25.6636 15.85 25.5256 15.912 25.3696 15.996L25.0096 15.324C25.2216 15.196 25.4356 15.098 25.6516 15.03C25.8676 14.962 26.0936 14.928 26.3296 14.928C26.7176 14.928 27.0216 15.04 27.2416 15.264C27.4656 15.484 27.5776 15.84 27.5776 16.332V18H26.7376L26.6656 17.712H26.6416C26.5216 17.82 26.3936 17.908 26.2576 17.976C26.1256 18.04 25.9776 18.072 25.8136 18.072ZM26.1736 17.28C26.2576 17.28 26.3256 17.262 26.3776 17.226C26.4336 17.186 26.4896 17.136 26.5456 17.076V16.668C26.2976 16.704 26.1276 16.758 26.0356 16.83C25.9436 16.902 25.8976 16.98 25.8976 17.064C25.8976 17.208 25.9896 17.28 26.1736 17.28Z" fill="#A9A9A9"/>
<path d="M28.2504 18V15H29.0904L29.1624 15.516H29.1864C29.2984 15.312 29.4304 15.164 29.5824 15.072C29.7384 14.976 29.8904 14.928 30.0384 14.928C30.1304 14.928 30.2044 14.934 30.2604 14.946C30.3164 14.954 30.3664 14.968 30.4104 14.988L30.2424 15.876C30.1864 15.864 30.1324 15.854 30.0804 15.846C30.0324 15.834 29.9744 15.828 29.9064 15.828C29.7984 15.828 29.6844 15.866 29.5644 15.942C29.4484 16.014 29.3544 16.144 29.2824 16.332V18H28.2504Z" fill="#A9A9A9"/>
<path d="M31.7916 18.072C31.6036 18.072 31.4336 18.036 31.2816 17.964C31.1336 17.892 31.0056 17.788 30.8976 17.652C30.7936 17.516 30.7116 17.352 30.6516 17.16C30.5956 16.964 30.5676 16.744 30.5676 16.5C30.5676 16.256 30.6016 16.036 30.6696 15.84C30.7416 15.644 30.8336 15.48 30.9456 15.348C31.0616 15.212 31.1936 15.108 31.3416 15.036C31.4896 14.964 31.6396 14.928 31.7916 14.928C31.9556 14.928 32.0896 14.956 32.1936 15.012C32.2976 15.064 32.3956 15.136 32.4876 15.228L32.4516 14.796V13.824H33.4836V18H32.6436L32.5716 17.724H32.5476C32.4436 17.828 32.3236 17.912 32.1876 17.976C32.0556 18.04 31.9236 18.072 31.7916 18.072ZM32.0676 17.232C32.1476 17.232 32.2176 17.218 32.2776 17.19C32.3376 17.158 32.3956 17.1 32.4516 17.016V15.912C32.3916 15.856 32.3256 15.818 32.2536 15.798C32.1816 15.778 32.1116 15.768 32.0436 15.768C31.9356 15.768 31.8376 15.822 31.7496 15.93C31.6656 16.038 31.6236 16.224 31.6236 16.488C31.6236 16.76 31.6616 16.952 31.7376 17.064C31.8176 17.176 31.9276 17.232 32.0676 17.232Z" fill="#A9A9A9"/>
</svg>
