<svg width="17" height="13" viewBox="0 0 17 13" fill="none" xmlns="http://www.w3.org/2000/svg">
<path fill-rule="evenodd" clip-rule="evenodd" d="M1.13863 2.39994C1.76748 2.39994 2.27726 1.89016 2.27726 1.26131C2.27726 0.632463 1.76748 0.122681 1.13863 0.122681C0.509782 0.122681 0 0.632463 0 1.26131C0 1.89016 0.509782 2.39994 1.13863 2.39994ZM16.1437 2.04357H4.78174C4.31346 2.04357 3.93391 1.66403 3.93391 1.19575C3.93391 0.727463 4.31346 0.34792 4.78174 0.34792H16.1435C16.6117 0.34792 16.9913 0.727463 16.9913 1.19575C16.9913 1.66403 16.612 2.04357 16.1437 2.04357ZM4.78174 7.36538H16.1437C16.612 7.36538 16.9916 6.98583 16.9913 6.51755C16.9913 6.04927 16.6117 5.66972 16.1435 5.66972H4.78174C4.31346 5.66972 3.93391 6.04927 3.93391 6.51755C3.93391 6.98583 4.31346 7.36538 4.78174 7.36538ZM4.78174 12.6872H16.1437C16.612 12.6872 16.9913 12.3076 16.9913 11.8394C16.9913 11.3711 16.6117 10.9915 16.1435 10.9915H4.78174C4.31346 10.9915 3.93391 11.3711 3.93391 11.8394C3.93391 12.3076 4.31346 12.6872 4.78174 12.6872ZM2.27726 6.51755C2.27726 7.1464 1.76748 7.65618 1.13863 7.65618C0.509782 7.65618 0 7.1464 0 6.51755C0 5.8887 0.509782 5.37892 1.13863 5.37892C1.76748 5.37892 2.27726 5.8887 2.27726 6.51755ZM1.13863 12.9124C1.76748 12.9124 2.27726 12.4026 2.27726 11.7738C2.27726 11.1449 1.76748 10.6352 1.13863 10.6352C0.509782 10.6352 0 11.1449 0 11.7738C0 12.4026 0.509782 12.9124 1.13863 12.9124Z" fill="url(#paint0_linear)"/>
<defs>
<linearGradient id="paint0_linear" x1="0" y1="0.122681" x2="0" y2="12.9124" gradientUnits="userSpaceOnUse">
<stop stop-color="#FFBA10"/>
<stop offset="1" stop-color="#FC7712"/>
</linearGradient>
</defs>
</svg>
