<svg width="16" height="14" viewBox="0 0 16 14" fill="none" xmlns="http://www.w3.org/2000/svg">
<path fill-rule="evenodd" clip-rule="evenodd" d="M15.6016 6.34456C15.9095 6.06425 16.0183 5.65284 15.8854 5.27041C15.7523 4.88797 15.4054 4.61497 14.9793 4.55704L11.1907 4.04293C11.0294 4.02098 10.89 3.92647 10.8179 3.78983L9.12412 0.58404C8.93393 0.223843 8.54793 0 8.11775 0C7.68789 0 7.30189 0.223843 7.1117 0.58404L5.41762 3.79012C5.34556 3.92676 5.20582 4.02128 5.04446 4.04322L1.25587 4.55733C0.830082 4.61497 0.48293 4.88827 0.349772 5.2707C0.216927 5.65314 0.325647 6.06454 0.633634 6.34486L3.37481 8.8402C3.49168 8.9467 3.54526 9.10003 3.51768 9.24984L2.87101 12.7734C2.81367 13.0836 2.90077 13.3852 3.1157 13.6231C3.4497 13.9939 4.03277 14.1068 4.49898 13.878L7.88715 12.2142C8.02877 12.1449 8.20705 12.1455 8.34835 12.2142L11.7368 13.878C11.9016 13.959 12.0774 14 12.2588 14C12.59 14 12.9039 13.8625 13.1198 13.6231C13.335 13.3852 13.4218 13.083 13.3645 12.7734L12.7175 9.24984C12.6899 9.09974 12.7435 8.9467 12.8604 8.8402L15.6016 6.34456Z" fill="#E6E6E6"/>
</svg>
