<svg width="121" height="121" viewBox="0 0 121 121" fill="none" xmlns="http://www.w3.org/2000/svg">
<path fill-rule="evenodd" clip-rule="evenodd" d="M120.455 74.1204L115.193 60.4221L120.448 46.7164C121.031 45.2044 120.567 43.4827 119.31 42.4647L107.91 33.2277L105.604 18.7286C105.35 17.1342 104.092 15.8766 102.498 15.6221L87.9985 13.3166L78.7615 1.9164C77.7435 0.658861 76.0294 0.202252 74.5098 0.778627L60.8116 6.04085L47.1059 0.786112C45.5938 0.202253 43.8797 0.658861 42.8617 1.92389L33.6247 13.3241L19.1255 15.6296C17.5311 15.8841 16.2736 17.1417 16.0191 18.7361L13.7136 33.2352L2.31335 42.4722C1.0558 43.4902 0.599195 45.2044 1.17557 46.7164L6.43031 60.4221L1.17557 74.1279C0.599195 75.6399 1.0558 77.3541 2.31335 78.3721L13.7136 87.609L16.0191 102.108C16.2736 103.703 17.5311 104.96 19.1255 105.215L33.6247 107.52L42.8617 118.92C43.8872 120.185 45.6013 120.65 47.1133 120.058L60.8116 114.803L74.5173 120.058C74.9515 120.223 75.4081 120.305 75.8572 120.305C76.9576 120.305 78.0429 119.819 78.769 118.92L88.006 107.52L102.505 105.215C104.1 104.96 105.357 103.703 105.612 102.108L107.917 87.609L119.317 78.3721C120.575 77.3541 121.031 75.6324 120.455 74.1204ZM107.678 61.762L112.476 74.2626L102.064 82.6911C101.345 83.275 100.866 84.0984 100.724 85.0116L98.6202 98.2383L85.3936 100.342C84.4804 100.484 83.657 100.963 83.0731 101.682L74.6595 112.094L62.159 107.296C61.7248 107.138 61.2682 107.049 60.8116 107.049C60.355 107.049 59.8984 107.131 59.4717 107.296L46.9711 112.094L38.5426 101.682C37.9587 100.963 37.1353 100.484 36.2221 100.342L22.9955 98.2383L20.8921 85.0116C20.7498 84.0984 20.2708 83.275 19.5522 82.6911L9.14002 74.2701L13.9381 61.7695C14.2675 60.9012 14.2675 59.9431 13.9307 59.0823L9.14002 46.5742L19.5522 38.1456C20.2708 37.5618 20.7498 36.7384 20.8921 35.8252L22.9955 22.5985L36.2221 20.4951C37.1353 20.3529 37.9587 19.8738 38.5426 19.1552L46.9636 8.75056L59.4642 13.5487C60.325 13.878 61.2832 13.878 62.144 13.5487L74.6446 8.75056L83.0731 19.1627C83.657 19.8813 84.4804 20.3604 85.3936 20.5026L98.6202 22.606L100.724 35.8327C100.866 36.7459 101.345 37.5693 102.064 38.1531L112.476 46.5817L107.678 59.0823C107.348 59.9431 107.348 60.9012 107.678 61.762ZM49.5835 30.4806C43.3931 30.4806 38.3555 35.5183 38.3555 41.7087C38.3555 47.8991 43.3931 52.9368 49.5835 52.9368C55.7739 52.9368 60.8116 47.8991 60.8116 41.7087C60.8116 35.5183 55.7739 30.4806 49.5835 30.4806ZM49.5835 45.4514C47.5176 45.4514 45.8408 43.7746 45.8408 41.7087C45.8408 39.6427 47.5176 37.966 49.5835 37.966C51.6495 37.966 53.3262 39.6427 53.3262 41.7087C53.3262 43.7746 51.6495 45.4514 49.5835 45.4514ZM60.8116 79.1356C60.8116 72.9452 65.8493 67.9075 72.0397 67.9075C78.2301 67.9075 83.2677 72.9452 83.2677 79.1356C83.2677 85.326 78.2301 90.3637 72.0397 90.3637C65.8493 90.3637 60.8116 85.326 60.8116 79.1356ZM68.297 79.1356C68.297 81.2016 69.9737 82.8783 72.0397 82.8783C74.1056 82.8783 75.7824 81.2016 75.7824 79.1356C75.7824 77.0696 74.1056 75.3929 72.0397 75.3929C69.9737 75.3929 68.297 77.0696 68.297 79.1356ZM76.486 32.0525C77.6836 30.3758 80.0266 29.9866 81.7033 31.1842C83.38 32.3819 83.7767 34.7173 82.5716 36.4015L45.1447 88.7992C44.4186 89.8172 43.2659 90.3637 42.0981 90.3637C41.3421 90.3637 40.5786 90.1391 39.9199 89.6675C38.2432 88.4699 37.8539 86.1269 39.0591 84.4502L76.486 32.0525Z" fill="url(#paint0_linear)"/>
<defs>
<linearGradient id="paint0_linear" x1="2345.65" y1="-1814.71" x2="-1404.38" y2="-1814.71" gradientUnits="userSpaceOnUse">
<stop stop-color="#FFBA10"/>
<stop offset="1" stop-color="#FC7712"/>
</linearGradient>
</defs>
</svg>
