<svg width="25" height="23" viewBox="0 0 25 23" fill="none" xmlns="http://www.w3.org/2000/svg">
<path fill-rule="evenodd" clip-rule="evenodd" d="M22.8693 6.08378H18.0454C18.3915 5.84747 18.6888 5.61268 18.8962 5.40228C20.1265 4.16581 20.1265 2.15331 18.8962 0.916843C17.7009 -0.287607 15.6182 -0.284558 14.4244 0.916843C13.7628 1.58005 12.0094 4.28016 12.2519 6.08378H12.1421C12.383 4.28016 10.6297 1.58005 9.9695 0.916843C8.77419 -0.284558 6.69156 -0.284558 5.49778 0.916843C4.26894 2.15331 4.26894 4.16581 5.49626 5.40228C5.70513 5.61268 6.00243 5.84747 6.34852 6.08378H1.52462C0.684555 6.08378 0 6.76834 0 7.60841V9.89534C0 10.3161 0.341515 10.6576 0.762311 10.6576H10.6723V7.60841H13.7216V10.6576H23.6316C24.0524 10.6576 24.3939 10.3161 24.3939 9.89534V7.60841C24.3939 6.76834 23.7109 6.08378 22.8693 6.08378ZM10.5824 6.03347C10.5824 6.03347 10.5184 6.08378 10.3003 6.08378C9.24683 6.08378 7.23585 4.98911 6.57874 4.32742C5.93992 3.68403 5.93992 2.63509 6.57874 1.9917C6.88824 1.68068 7.29836 1.50992 7.7344 1.50992C8.16892 1.50992 8.57904 1.68068 8.88854 1.9917C9.91614 3.02539 10.9376 5.66604 10.5824 6.03347ZM13.8115 6.03347C13.8115 6.035 13.8756 6.08378 14.0921 6.08378C15.1471 6.08378 17.1581 4.98911 17.8152 4.32742C18.4555 3.68403 18.4555 2.63509 17.8152 1.9917C17.1947 1.36813 16.1198 1.37118 15.5054 1.9917C14.4778 3.02539 13.4563 5.66604 13.8115 6.03347ZM1.52462 12.1823V21.33C1.52462 22.1716 2.20918 22.8546 3.04924 22.8546H10.6723V12.1823H1.52462ZM13.7216 22.8546V12.1823H22.8693V21.33C22.8693 22.1716 22.1863 22.8546 21.3447 22.8546H13.7216Z" fill="#838383"/>
</svg>
