<svg width="32" height="50" viewBox="0 0 32 50" fill="none" xmlns="http://www.w3.org/2000/svg">
<path fill-rule="evenodd" clip-rule="evenodd" d="M27.5002 0H4.16679C1.86653 0.00267029 0.00267029 1.86653 0 4.16679V45.8332C0.00267029 48.1335 1.86653 49.9973 4.16679 50H27.5002C29.8 49.9973 31.6639 48.1335 31.6666 45.8332V4.16679C31.6639 1.86653 29.8 0.00267029 27.5002 0ZM1.66664 8.33321H29.9999V41.6668H1.66664V8.33321ZM27.5002 1.66664H4.16679C2.78587 1.66664 1.66664 2.78587 1.66664 4.16679V6.66656H29.9999V4.16679C29.9999 2.78587 28.8807 1.66664 27.5002 1.66664ZM27.5002 48.3334H4.16679C2.78587 48.3334 1.66664 47.2141 1.66664 45.8332V43.3334H29.9999V45.8332C29.9999 47.2141 28.8807 48.3334 27.5002 48.3334ZM15.0002 45.0001H16.6668C17.1268 45.0001 17.4999 45.3732 17.4999 45.8332C17.4999 46.2936 17.1268 46.6667 16.6668 46.6667H15.0002C14.5397 46.6667 14.1666 46.2936 14.1666 45.8332C14.1666 45.3732 14.5397 45.0001 15.0002 45.0001ZM4.99992 4.99992H6.66656C7.127 4.99992 7.50008 4.62685 7.50008 4.16679C7.50008 3.70636 7.127 3.33328 6.66656 3.33328H4.99992C4.53987 3.33328 4.16679 3.70636 4.16679 4.16679C4.16679 4.62685 4.53987 4.99992 4.99992 4.99992ZM13.3331 4.99992H9.99985C9.53979 4.99992 9.16672 4.62685 9.16672 4.16679C9.16672 3.70636 9.53979 3.33328 9.99985 3.33328H13.3331C13.7936 3.33328 14.1666 3.70636 14.1666 4.16679C14.1666 4.62685 13.7936 4.99992 13.3331 4.99992ZM7.50008 20.8332C7.03964 20.8332 6.66656 20.4601 6.66656 20.0001V16.6668C6.66656 16.2064 7.03964 15.8333 7.50008 15.8333H10.8334C11.2934 15.8333 11.6665 16.2064 11.6665 16.6668V20.0001C11.6665 20.4601 11.2934 20.8332 10.8334 20.8332H7.50008ZM9.99985 17.4999H8.33321V19.1666H9.99985V17.4999ZM24.1669 15.8333H20.8332C20.3732 15.8333 20.0001 16.2064 20.0001 16.6668V20.0001C20.0001 20.4601 20.3732 20.8332 20.8332 20.8332H24.1669C24.6269 20.8332 25 20.4601 25 20.0001V16.6668C25 16.2064 24.6269 15.8333 24.1669 15.8333ZM23.3334 19.1666H21.6667V17.4999H23.3334V19.1666ZM10.8334 29.1668C11.2934 29.1668 11.6669 29.5399 11.6665 29.9999V33.3332C11.6665 33.7936 11.2934 34.1667 10.8334 34.1667H7.50008C7.03964 34.1667 6.66656 33.7936 6.66656 33.3332V29.9999C6.66656 29.5399 7.03964 29.1668 7.50008 29.1668H10.8334ZM8.33321 32.5001H9.99985V30.8334H8.33321V32.5001ZM17.4999 17.4999H14.1666C13.7066 17.4999 13.3335 17.1268 13.3335 16.6668C13.3335 16.2064 13.7066 15.8333 14.1666 15.8333H17.4999C17.9604 15.8333 18.3334 16.2064 18.3334 16.6668C18.3334 17.1268 17.9604 17.4999 17.4999 17.4999ZM7.50008 27.5002C7.96013 27.5002 8.33321 27.1271 8.33321 26.6666V25H9.99985V25.8335C9.99985 26.2936 10.3729 26.6666 10.8334 26.6666C11.2934 26.6666 11.6665 26.2936 11.6665 25.8335V25H14.1666C14.6271 25 15.0002 24.6269 15.0002 24.1669C15.0002 23.7064 14.6271 23.3334 14.1666 23.3334H12.5V22.4998C12.5 22.0398 12.1269 21.6667 11.6665 21.6667C11.2064 21.6667 10.8334 22.0398 10.8334 22.4998V23.3334H8.33321C8.33321 22.8733 7.96013 22.4998 7.50008 22.4998C7.03964 22.4998 6.66656 22.8733 6.66656 23.3334V26.6666C6.66656 27.1271 7.03964 27.5002 7.50008 27.5002ZM23.3334 31.6666C23.3334 31.2065 23.7064 30.8334 24.1669 30.8334C24.6269 30.8334 25 31.2065 25 31.6666V33.3332C25 33.7936 24.6269 34.1667 24.1669 34.1667H22.4998C22.0398 34.1667 21.6667 33.7936 21.6667 33.3332C21.6667 32.8732 22.0398 32.5001 22.4998 32.5001H23.3334V31.6666ZM19.1666 32.5001H17.4999V30.8334H18.3334C18.7935 30.8334 19.1666 30.4604 19.1666 29.9999C19.1666 29.5399 18.7935 29.1668 18.3334 29.1668H17.4999V28.3333C17.4999 27.8732 17.1268 27.5002 16.6668 27.5002C16.2064 27.5002 15.8333 27.8732 15.8333 28.3333H15.0002C14.5397 28.3333 14.1666 28.7064 14.1666 29.1668C14.1666 29.6268 14.5397 29.9999 15.0002 29.9999H15.8333V32.5001H15.0002V31.6666C15.0002 31.2065 14.6271 30.8334 14.1666 30.8334C13.7066 30.8334 13.3335 31.2065 13.3335 31.6666V33.3332C13.3335 33.7936 13.7066 34.1667 14.1666 34.1667H19.1666C19.627 34.1667 20.0001 33.7936 20.0001 33.3332C20.0001 32.8732 19.627 32.5001 19.1666 32.5001ZM23.3334 23.3334C23.3334 22.8733 23.7064 22.4998 24.1669 22.4998C24.6269 22.4998 25 22.8733 25 23.3334V28.3333C25 28.7937 24.6269 29.1668 24.1669 29.1668C23.7064 29.1668 23.3334 28.7937 23.3334 28.3333V23.3334ZM19.1666 25H20.0001V25.8335C20.0001 26.2936 20.3732 26.6666 20.8332 26.6666C21.2936 26.6666 21.6667 26.2936 21.6667 25.8335V24.1669C21.6667 23.7064 21.2936 23.3334 20.8332 23.3334V22.4998C20.8332 22.0398 20.4601 21.6667 20.0001 21.6667C19.5396 21.6667 19.1666 22.0398 19.1666 22.4998V23.3334C18.7065 23.3334 18.3334 23.7064 18.3334 24.1669C18.3334 24.6269 18.7065 25 19.1666 25ZM15.8333 21.6667H14.1666C13.7066 21.6667 13.3335 21.2936 13.3335 20.8332C13.3335 20.3732 13.7066 20.0001 14.1666 20.0001H15.0002V19.1666C15.0002 18.7065 15.3732 18.3334 15.8333 18.3334C16.2937 18.3334 16.6668 18.7065 16.6668 19.1666H17.4999C17.9604 19.1666 18.3334 19.5396 18.3334 20.0001C18.3334 20.4601 17.9604 20.8332 17.4999 20.8332H16.6668C16.6668 21.2936 16.2937 21.6667 15.8333 21.6667ZM15.0002 27.5002C15.0002 27.0397 14.6271 26.6666 14.1666 26.6666H12.5C12.0399 26.6666 11.6669 27.0397 11.6669 27.5002C11.6669 27.9602 12.0399 28.3333 12.5 28.3333H14.1666C14.6271 28.3333 15.0002 27.9602 15.0002 27.5002ZM15.8333 25.8335V24.1669C15.8333 23.7064 16.2064 23.3334 16.6668 23.3334C17.1268 23.3334 17.4999 23.7064 17.4999 24.1669V25.8335C17.4999 26.2936 17.1268 26.6666 16.6668 26.6666C16.2064 26.6666 15.8333 26.2936 15.8333 25.8335ZM22.4998 30.8334V29.1668C22.4998 28.7064 22.1268 28.3333 21.6667 28.3333C21.2063 28.3333 20.8332 28.7064 20.8332 29.1668V30.8334C20.8332 31.2935 21.2063 31.6666 21.6667 31.6666C22.1268 31.6666 22.4998 31.2935 22.4998 30.8334ZM18.3334 26.6666H20.0001C20.4601 26.6666 20.8332 27.0397 20.8332 27.5002C20.8332 27.9602 20.4601 28.3333 20.0001 28.3333H18.3334C17.873 28.3333 17.4999 27.9602 17.4999 27.5002C17.4999 27.0397 17.873 26.6666 18.3334 26.6666Z" fill="url(#paint0_linear)"/>
<defs>
<linearGradient id="paint0_linear" x1="33.9788" y1="50.8492" x2="33.9788" y2="-6.45252" gradientUnits="userSpaceOnUse">
<stop stop-color="#E93E3A"/>
<stop offset="0.355" stop-color="#ED683C"/>
<stop offset="0.705" stop-color="#F3903F"/>
<stop offset="1" stop-color="#FDC70C"/>
</linearGradient>
</defs>
</svg>
