<svg width="113" height="113" viewBox="0 0 113 113" fill="none" xmlns="http://www.w3.org/2000/svg">
<path fill-rule="evenodd" clip-rule="evenodd" d="M0 67.7003V59.9846H7.96466V52.7664H0V45.2996V40.0726V0H45.2996V13.9382H55.7534V0.0834686H67.7003V0H113V44.0553V45.2996V56.7491H105.035V67.9497H113V73.9232V80.6435V86.617H100.306V80.6435V73.9232V68.6961H93.088V76.6608H80.3942V64.7138H68.4472V75.1675H80.02V99.8083H88.3592V87.8613H101.053V99.8083H113V112.502H100.306V100.555H91.0968V112.502H78.403V102.048H68.4472V112.502H55.7534V100.555V99.8083V88.6078H45.2996V113H0V72.6784V67.7003ZM7.96466 105.035H37.3346V75.6654H7.96466V105.035ZM56.4998 76.6608H67.328V87.8613H56.4998V76.6608ZM66.5794 52.7664H56.4998V63.967H66.5794V52.7664ZM100.306 56.0023H93.4603V52.02H68.4468V45.2996H100.306V56.0023ZM105.035 7.96466H75.665V37.3346H105.035V7.96466ZM67.7003 40.0726H56.4998V15.2663H67.7003V40.0726ZM45.3315 52.02H55.7534V40.8194H45.3315V52.02ZM7.96466 7.96466H37.3346V37.3346H7.96466V7.96466ZM32.6377 52.7664V45.2996V45.2993H12.6938V52.0196H19.9117H20.6585H32.6058V64.7134H20.6588H19.912H12.6938V67.7003H45.2997V75.914H55.7534V64.7134H43.8064V52.7664H32.6377ZM31.2412 13.9588H13.9588V31.2412H31.2412V13.9588ZM31.2412 81.7588H13.9588V99.0412H31.2412V81.7588ZM99.0412 13.9588H81.7588V31.2412H99.0412V13.9588Z" fill="url(#paint0_linear)"/>
<defs>
<linearGradient id="paint0_linear" x1="113" y1="0" x2="0" y2="0" gradientUnits="userSpaceOnUse">
<stop stop-color="#FFBA10"/>
<stop offset="1" stop-color="#FC7712"/>
</linearGradient>
</defs>
</svg>
