<svg width="47" height="34" viewBox="0 0 47 34" fill="none" xmlns="http://www.w3.org/2000/svg">
<path fill-rule="evenodd" clip-rule="evenodd" d="M13.4583 0H42.2976C44.4221 0 46.1429 1.69053 46.1429 3.77781V30.2222C46.1429 32.3095 44.4221 34 42.2976 34H13.4583C12.1317 34 11.0839 33.32 10.3918 32.3189L0 16.9905L10.3917 1.66219C11.0838 0.661141 12.1317 0 13.4583 0ZM33.8092 26.4445L36.5297 23.7717L29.6371 17L36.5298 10.2283L33.8093 7.55553L26.9167 14.3272L20.0241 7.55553L17.3036 10.2283L24.1962 17L17.3036 23.7717L20.024 26.4445L26.9166 19.6728L33.8092 26.4445Z" fill="#BFBFBF"/>
</svg>
