<svg width="17" height="16" viewBox="0 0 17 16" fill="none" xmlns="http://www.w3.org/2000/svg">
<path fill-rule="evenodd" clip-rule="evenodd" d="M16.4374 9.81177L15.7357 7.98533L16.4364 6.1579C16.5142 5.9563 16.4523 5.72674 16.2847 5.59101L14.7646 4.35942L14.4572 2.42619C14.4233 2.21361 14.2556 2.04593 14.043 2.012L12.1098 1.7046L10.8782 0.184569C10.7425 0.0168967 10.5139 -0.0439843 10.3113 0.0328656L8.48488 0.734495L6.65745 0.0338636C6.45585 -0.0439843 6.22729 0.0168968 6.09156 0.185567L4.85996 1.7056L2.92674 2.013C2.71416 2.04693 2.54648 2.2146 2.51255 2.42719L2.20515 4.36041L0.685119 5.59201C0.517446 5.72774 0.456565 5.9563 0.533415 6.1579L1.23405 7.98533L0.533415 9.81276C0.456565 10.0144 0.517446 10.2429 0.685119 10.3787L2.20515 11.6103L2.51255 13.5435C2.54648 13.7561 2.71416 13.9237 2.92674 13.9577L4.85996 14.2651L6.09156 15.7851C6.22829 15.9538 6.45685 16.0156 6.65845 15.9368L8.48488 15.2362L10.3123 15.9368C10.3702 15.9588 10.4311 15.9697 10.491 15.9697C10.6377 15.9697 10.7824 15.9049 10.8792 15.7851L12.1108 14.2651L14.044 13.9577C14.2566 13.9237 14.4243 13.7561 14.4582 13.5435L14.7656 11.6103L16.2856 10.3787C16.4533 10.2429 16.5142 10.0134 16.4374 9.81177ZM14.7337 8.16398L15.3734 9.83073L13.9851 10.9545C13.8893 11.0324 13.8255 11.1422 13.8065 11.2639L13.526 13.0275L11.7625 13.3079C11.6407 13.3269 11.5309 13.3908 11.4531 13.4866L10.3313 14.8749L8.66453 14.2351C8.60665 14.2142 8.54577 14.2022 8.48488 14.2022C8.424 14.2022 8.36312 14.2132 8.30623 14.2351L6.63949 14.8749L5.51568 13.4866C5.43784 13.3908 5.32805 13.3269 5.20629 13.3079L3.44273 13.0275L3.16228 11.2639C3.14332 11.1422 3.07944 11.0324 2.98363 10.9545L1.59534 9.83173L2.23509 8.16498C2.27901 8.04921 2.27901 7.92146 2.23409 7.80668L1.59534 6.13894L2.98363 5.01513C3.07944 4.93729 3.14332 4.8275 3.16228 4.70574L3.44273 2.94218L5.20629 2.66173C5.32805 2.64277 5.43784 2.57889 5.51568 2.48308L6.63849 1.09579L8.30524 1.73554C8.42001 1.77945 8.54776 1.77945 8.66254 1.73554L10.3293 1.09579L11.4531 2.48408C11.5309 2.57989 11.6407 2.64377 11.7625 2.66273L13.526 2.94318L13.8065 4.70674C13.8255 4.8285 13.8893 4.93828 13.9851 5.01613L15.3734 6.13994L14.7337 7.80668C14.6898 7.92146 14.6898 8.04921 14.7337 8.16398ZM6.98781 3.99313C6.16242 3.99313 5.49073 4.66482 5.49073 5.49021C5.49073 6.31559 6.16242 6.98728 6.98781 6.98728C7.8132 6.98728 8.48488 6.31559 8.48488 5.49021C8.48488 4.66482 7.8132 3.99313 6.98781 3.99313ZM6.98781 5.98923C6.71235 5.98923 6.48878 5.76567 6.48878 5.49021C6.48878 5.21474 6.71235 4.99118 6.98781 4.99118C7.26327 4.99118 7.48683 5.21474 7.48683 5.49021C7.48683 5.76567 7.26327 5.98923 6.98781 5.98923ZM8.48488 10.4805C8.48488 9.65507 9.15657 8.98338 9.98196 8.98338C10.8073 8.98338 11.479 9.65507 11.479 10.4805C11.479 11.3058 10.8073 11.9775 9.98196 11.9775C9.15657 11.9775 8.48488 11.3058 8.48488 10.4805ZM9.48293 10.4805C9.48293 10.7559 9.7065 10.9795 9.98196 10.9795C10.2574 10.9795 10.481 10.7559 10.481 10.4805C10.481 10.205 10.2574 9.98143 9.98196 9.98143C9.7065 9.98143 9.48293 10.205 9.48293 10.4805ZM10.5748 4.20272C10.7345 3.97916 11.0469 3.92726 11.2704 4.08695C11.494 4.24664 11.5469 4.55803 11.3862 4.78259L6.39596 11.7689C6.29915 11.9047 6.14545 11.9775 5.98976 11.9775C5.88895 11.9775 5.78715 11.9476 5.69933 11.8847C5.47576 11.725 5.42386 11.4126 5.58455 11.1891L10.5748 4.20272Z" fill="url(#paint0_linear)"/>
<defs>
<linearGradient id="paint0_linear" x1="0.500549" y1="0" x2="0.500549" y2="15.9707" gradientUnits="userSpaceOnUse">
<stop stop-color="#FFBA10"/>
<stop offset="1" stop-color="#FC7712"/>
</linearGradient>
</defs>
</svg>
