<svg width="59" height="59" viewBox="0 0 59 59" fill="none" xmlns="http://www.w3.org/2000/svg">
<circle cx="29.5" cy="29.5" r="27.5" stroke="#D2D2D2" stroke-width="4"/>
<circle cx="29.5" cy="29.5" r="23.5" stroke="#A6A6A6" stroke-width="4"/>
<circle cx="29.5" cy="29.5" r="19.5" stroke="#838383" stroke-width="4"/>
<path fill-rule="evenodd" clip-rule="evenodd" d="M18 31.5679V30.1356H19.6071V28.7956H18V27.4094V26.4391V19H27.1407V21.5875H29.2501V19.0155H31.6608V19H40.8015V27.1784V27.4094V29.5349H39.1944V31.6142H40.8015V32.7231V33.9707V35.0796H38.2401V33.9707V32.7231V31.7528H36.7836V33.2313H34.2222V31.0135H31.8115V32.9541H34.1467V37.5285H35.8294V35.3106H38.3908V37.5285H40.8015V39.8849H38.2401V37.6671H36.3818V39.8849H33.8204V37.9443H31.8115V39.8849H29.2501V37.6671V37.5285V35.4492H27.1407V39.9774H18V32.4921V31.5679ZM19.6071 38.4988H25.5335V33.0466H19.6071V38.4988ZM29.4007 33.2313H31.5857V35.3106H29.4007V33.2313ZM31.4346 28.7956H29.4007V30.8749H31.4346V28.7956ZM38.24 29.3963H36.8587V28.657H31.8114V27.4094H38.24V29.3963ZM39.1943 20.4786H33.2679V25.9308H39.1943V20.4786ZM31.6608 26.4391H29.4007V21.834H31.6608V26.4391ZM27.1471 28.657H29.2501V26.5777H27.1471V28.657ZM19.6071 20.4786H25.5335V25.9308H19.6071V20.4786ZM24.5857 28.7956V27.4094V27.4094H20.5614V28.6569H22.0178H22.1685H24.5793V31.0134H22.1686H22.0179H20.5614V31.5679H27.1407V33.0927H29.2501V31.0134H26.8394V28.7956H24.5857ZM24.3281 21.5875H20.8125V24.8219H24.3281V21.5875ZM24.3281 34.1555H20.8125V37.3899H24.3281V34.1555ZM37.989 21.5875H34.4733V24.8219H37.989V21.5875Z" fill="#838383"/>
</svg>
