<svg width="23" height="23" viewBox="0 0 23 23" fill="none" xmlns="http://www.w3.org/2000/svg">
<path fill-rule="evenodd" clip-rule="evenodd" d="M16.7391 15.2561L22.2132 20.9494C22.6763 21.431 22.6609 22.199 22.1797 22.6621C21.9531 22.8801 21.6548 23 21.3403 23C21.008 23 20.6979 22.868 20.4673 22.6285L14.9517 16.8921C13.3856 17.9927 11.5538 18.5725 9.63152 18.5725C4.51116 18.5725 0.345276 14.4066 0.345276 9.28624C0.345276 4.16589 4.51116 0 9.63152 0C14.7519 0 18.9178 4.16589 18.9178 9.28624C18.9178 11.4778 18.1466 13.5829 16.7391 15.2561ZM16.4953 9.28624C16.4953 5.50149 13.4163 2.4225 9.63152 2.4225C5.84677 2.4225 2.76777 5.50149 2.76777 9.28624C2.76777 13.071 5.84677 16.15 9.63152 16.15C13.4163 16.15 16.4953 13.071 16.4953 9.28624Z" fill="url(#paint0_linear)"/>
<defs>
<linearGradient id="paint0_linear" x1="0.345276" y1="0" x2="0.345276" y2="23" gradientUnits="userSpaceOnUse">
<stop stop-color="#FFBA10"/>
<stop offset="1" stop-color="#FC7712"/>
</linearGradient>
</defs>
</svg>
