<svg width="40" height="45" viewBox="0 0 40 45" fill="none" xmlns="http://www.w3.org/2000/svg">
<path fill-rule="evenodd" clip-rule="evenodd" d="M19.2848 0.0739012C19.491 -0.0246337 19.7313 -0.0246337 19.9374 0.0739012L38.7945 9.07388C39.0562 9.19851 39.223 9.46081 39.223 9.74955C39.223 26.6886 32.1861 39.514 19.9178 44.9355C19.8204 44.9791 19.7158 45 19.6115 45C19.5076 45 19.4026 44.9791 19.3052 44.9355C7.03691 39.514 0 26.6886 0 9.74955C0 9.4615 0.166082 9.19851 0.427808 9.07388L19.2848 0.0739012ZM19.6108 41.2502C19.7275 41.2502 19.8446 41.2231 19.9516 41.1698C33.3932 34.4046 35.9041 20.0075 36.2041 12.0282C36.2149 11.7295 36.0467 11.4521 35.7743 11.323L19.9343 3.82304C19.7299 3.72622 19.491 3.72622 19.2866 3.82304L3.44629 11.323C3.1742 11.4514 3.00501 11.7295 3.01641 12.0282C3.3175 20.0075 5.8291 34.4046 19.2697 41.1698C19.377 41.2231 19.4937 41.2502 19.6108 41.2502ZM20.9797 17.9392C20.9797 17.1009 20.2981 16.4189 19.4595 16.4189C18.6212 16.4189 17.9392 17.1009 17.9392 17.9392V19.4595H20.9797V17.9392ZM17.1789 20.9797H16.4189V25.5405H22.5V20.9797H17.1789ZM20.2198 24.0203C20.2198 24.4406 19.8791 24.7806 19.4595 24.7806C19.0398 24.7806 18.6995 24.4406 18.6995 24.0203V22.5C18.6995 22.0797 19.0398 21.74 19.4595 21.74C19.8791 21.74 20.2198 22.0797 20.2198 22.5V24.0203ZM19.4596 30.1014C14.9329 30.1014 11.25 26.4182 11.25 21.8919C11.25 17.3656 14.9329 13.6824 19.4596 13.6824C23.986 13.6824 27.6689 17.3656 27.6689 21.8919C27.6689 26.4182 23.986 30.1014 19.4596 30.1014ZM22.4671 19.6528V18.1602C22.4671 16.5139 21.1282 15.175 19.4818 15.175C17.8355 15.175 16.4966 16.5139 16.4966 18.1602V19.6528H15.7501C15.3384 19.6528 15.004 19.9866 15.004 20.3993V26.3697C15.004 26.7824 15.3384 27.1162 15.7501 27.1162H23.2136C23.6256 27.1162 23.9597 26.7824 23.9597 26.3697V20.3993C23.9597 19.9866 23.6256 19.6528 23.2136 19.6528H22.4671ZM4.56081 12.6128C4.92956 20.2857 7.4349 33.4733 19.6115 39.8311C31.7881 33.4733 34.2927 20.2857 34.6622 12.6128L19.6115 5.47297L4.56081 12.6128ZM29.3848 21.908C29.3848 27.2891 24.9902 31.6672 19.5891 31.6672C14.1876 31.6672 9.79295 27.2891 9.79295 21.908C9.79295 16.5269 14.1876 12.1489 19.5891 12.1489C24.9902 12.1489 29.3848 16.5269 29.3848 21.908Z" fill="url(#paint0_linear)"/>
<defs>
<linearGradient id="paint0_linear" x1="0" y1="0" x2="0" y2="45" gradientUnits="userSpaceOnUse">
<stop stop-color="#FFBA10"/>
<stop offset="1" stop-color="#FC7712"/>
</linearGradient>
</defs>
</svg>
