<svg width="42" height="46" viewBox="0 0 42 46" fill="none" xmlns="http://www.w3.org/2000/svg">
<path fill-rule="evenodd" clip-rule="evenodd" d="M22.0098 38.618V25.5824C23.0866 25.4584 24.4465 25.1897 26 24.6404V44.7049C26 45.4201 25.4238 46 24.7129 46H1.28685C0.576302 46 0 45.4201 0 44.7049V2.00717C0 1.29198 0.57617 0.712124 1.28685 0.712124H2.8102V0.647458C2.8102 0.289927 3.09836 0 3.4537 0H6.07083C6.42644 0 6.71459 0.289927 6.71459 0.647458V0.71199H24.7129C25.3472 0.71199 25.8729 1.174 25.9793 1.78165C23.7138 2.25381 21.6302 3.19828 19.9195 4.55666C19.2978 5.05033 18.7431 5.58449 18.2571 6.15139H3.99003V38.618H22.0098ZM17.1725 2.57928H8.82752V4.04708H17.1725V2.57928ZM13 43.604C12.218 43.604 11.5842 42.9663 11.5842 42.1795C11.5842 41.3927 12.218 40.755 13 40.755C13.782 40.755 14.4158 41.3927 14.4158 42.1795C14.4158 42.9663 13.7819 43.604 13 43.604ZM30 3C23.3831 3 18 7.25126 18 12.4768C18 15.4166 19.742 18.2015 22.6796 19.9891C22.5634 20.501 22.1296 21.662 20.5134 23.0104C20.3475 23.1489 20.2798 23.3711 20.341 23.5773C20.4021 23.7832 20.5805 23.9342 20.7958 23.9621C20.8258 23.9659 21.1021 24 21.5905 24C22.9786 24 25.806 23.7296 29.2571 21.9353C29.5065 21.9472 29.7556 21.9533 30 21.9533C36.6169 21.9533 42 17.7022 42 12.4768C42 7.25126 36.6167 3 30 3ZM24.5869 15.3494C23.8139 15.3494 23.008 15.0214 22.4831 14.4933L22.1421 14.1505L22.9452 13.3565L23.2919 13.7187C23.5871 14.0271 24.1075 14.2345 24.5869 14.2345C25.095 14.2345 25.6885 14.0765 25.6885 13.631C25.6924 13.1963 25.4331 13.0535 24.54 12.7861L24.5396 12.786C23.7298 12.5433 22.6212 12.2112 22.6212 10.9176C22.6212 9.95489 23.4758 9.30798 24.7484 9.30798C25.3219 9.30798 25.9469 9.47951 26.3794 9.75571L26.7854 10.0148L26.1924 10.9533L25.7742 10.6868C25.5266 10.5291 25.1144 10.4232 24.7484 10.4232C24.2509 10.4232 23.7489 10.576 23.7489 10.9176C23.7489 11.3193 24.0171 11.4637 24.8777 11.7209C25.7004 11.9667 26.8271 12.3035 26.8167 13.6349C26.8165 14.6588 25.9206 15.3494 24.5869 15.3494ZM31.9981 15.3494H33.125H33.1251V9.30785H32.0762L30.226 12.9226L28.3632 9.30785H27.3151V15.3494H28.4431V11.9464L29.9125 14.7907H30.5281L31.9929 11.9464L31.9981 15.3494ZM35.628 15.3494C34.8553 15.3494 34.0494 15.0214 33.5242 14.4933L33.1832 14.1505L33.9865 13.3565L34.333 13.7187C34.6285 14.0271 35.1489 14.2345 35.628 14.2345C36.1364 14.2345 36.7299 14.0765 36.7299 13.631C36.7335 13.1963 36.4745 13.0535 35.5814 12.7861L35.581 12.786C34.7712 12.5433 33.6626 12.2112 33.6626 10.9176C33.6626 9.95489 34.5172 9.30798 35.7895 9.30798C36.3633 9.30798 36.9883 9.47951 37.4208 9.75571L37.8268 10.0148L37.2338 10.9533L36.8155 10.6868C36.568 10.5291 36.1557 10.4232 35.7895 10.4232C35.2923 10.4232 34.7903 10.576 34.7903 10.9176C34.7903 11.3193 35.0585 11.4637 35.919 11.7209C36.7416 11.9667 37.8683 12.3035 37.8579 13.6349C37.8579 14.6588 36.962 15.3494 35.628 15.3494Z" fill="url(#paint0_linear)"/>
<defs>
<linearGradient id="paint0_linear" x1="0" y1="0" x2="0" y2="46" gradientUnits="userSpaceOnUse">
<stop stop-color="#FFBA10"/>
<stop offset="1" stop-color="#FC7712"/>
</linearGradient>
</defs>
</svg>
