<svg width="18" height="18" viewBox="0 0 18 18" fill="none" xmlns="http://www.w3.org/2000/svg">
<path fill-rule="evenodd" clip-rule="evenodd" d="M9 16.2C12.96 16.2 16.2 12.96 16.2 9H18C18 13.95 13.95 18 9 18C4.05 18 0 13.95 0 9C0 4.05 4.05 0 9 0C10.17 0 11.34 0.27 12.42 0.63L10.98 2.07C10.35 1.89 9.72 1.8 9 1.8C5.04 1.8 1.8 5.04 1.8 9C1.8 12.96 5.04 16.2 9 16.2ZM4.05 8.55L5.31 7.29L8.1 10.08L15.84 2.34L17.1 3.6L8.1 12.6L4.05 8.55Z" fill="url(#paint0_linear)"/>
<defs>
<linearGradient id="paint0_linear" x1="0" y1="0" x2="0" y2="18" gradientUnits="userSpaceOnUse">
<stop stop-color="#FFBA10"/>
<stop offset="1" stop-color="#FC7712"/>
</linearGradient>
</defs>
</svg>
