<svg width="95" height="95" viewBox="0 0 95 95" fill="none" xmlns="http://www.w3.org/2000/svg">
<circle cx="47.5" cy="47.5" r="44.5" stroke="#17D200" stroke-width="6"/>
<path fill-rule="evenodd" clip-rule="evenodd" d="M67.63 30.8882C66.2251 29.9617 64.3276 30.3466 63.393 31.7333L43.312 61.6577L30.7126 52.2544C29.2881 51.3541 27.4001 51.7639 26.4843 53.1607C25.5732 54.5677 25.983 56.4349 27.4028 57.3359L42.5389 68.3547C42.7872 68.5108 43.0516 68.6266 43.3214 68.7053C43.3228 68.7053 43.3241 68.7066 43.3248 68.7066C43.4526 68.7436 43.5825 68.7699 43.7123 68.7907C43.7271 68.7921 43.7419 68.7975 43.7568 68.8001C43.9007 68.8197 44.0454 68.8304 44.1894 68.8304C44.3146 68.8304 44.4377 68.8224 44.5615 68.8082C44.6597 68.7961 44.758 68.7759 44.8549 68.7551C44.8784 68.7497 44.902 68.7477 44.9248 68.7423C45.2828 68.6555 45.6246 68.5041 45.9321 68.2942C45.9341 68.2928 45.9362 68.2915 45.9375 68.2901C46.0257 68.2309 46.1091 68.1636 46.1912 68.093C46.206 68.0788 46.2228 68.0694 46.2376 68.056C46.3022 67.9974 46.3614 67.9342 46.42 67.8709C46.4502 67.8393 46.4825 67.8104 46.5108 67.7774C46.5532 67.7289 46.5909 67.6751 46.6312 67.6233C46.6682 67.5749 46.7073 67.5291 46.7423 67.478L68.4879 35.0734C69.4239 33.6813 69.039 31.8094 67.63 30.8882Z" fill="#17D200"/>
</svg>
