<svg width="18" height="15" viewBox="0 0 18 15" fill="none" xmlns="http://www.w3.org/2000/svg">
<path fill-rule="evenodd" clip-rule="evenodd" d="M4.27402 8.67407L0.3043 7.19245C-0.0988964 7.04135 -0.102399 6.47214 0.299649 6.31708L16.5915 0.0321859C16.9368 -0.10139 17.2932 0.201194 17.218 0.563905L14.2943 14.6273C14.2254 14.9594 13.8361 15.1099 13.5613 14.9102L9.57024 12.0126C9.32784 11.8366 8.99747 11.8461 8.76552 12.0351L6.55273 13.839C6.29586 14.049 5.90886 13.932 5.81054 13.6155L4.27402 8.67407ZM13.3212 3.10701L5.56291 7.88536C5.26556 8.0689 5.12555 8.42799 5.22162 8.76417L6.06046 11.7116C6.12002 11.9205 6.42317 11.8991 6.45206 11.6833L6.67017 10.0669C6.71129 9.7626 6.85646 9.48224 7.08152 9.27275L13.4844 3.32099C13.6041 3.20992 13.4607 3.02139 13.3212 3.10701Z" fill="white"/>
</svg>
