<svg width="20" height="20" viewBox="0 0 20 20" fill="none" xmlns="http://www.w3.org/2000/svg">
<path fill-rule="evenodd" clip-rule="evenodd" d="M17.6748 6.51117C17.6757 6.51458 17.6765 6.518 17.6781 6.52133C18.4391 7.84133 18.8767 9.37 18.8767 11C18.8767 12.63 18.4391 14.1587 17.6777 15.4787C17.6762 15.4819 17.6755 15.4852 17.6747 15.4884C17.6738 15.4923 17.6729 15.4962 17.6707 15.5C17.6674 15.5059 17.6632 15.5108 17.659 15.5156C17.6562 15.519 17.6533 15.5223 17.6507 15.526C16.8644 16.8713 15.7394 17.995 14.3931 18.7797C14.391 18.7811 14.3893 18.7827 14.3876 18.7843L14.3854 18.7866L14.3854 18.7866L14.3853 18.7866C14.3826 18.7894 14.38 18.7922 14.3764 18.7943C14.3703 18.798 14.3638 18.8003 14.3574 18.8026L14.3573 18.8026L14.352 18.8045L14.3451 18.8073C13.0444 19.5547 11.5411 19.9873 9.93874 19.9983C9.93791 19.9983 9.93712 19.9985 9.93634 19.9987L9.9349 19.9992C9.93365 19.9996 9.9324 20 9.93107 20C9.93011 20 9.92922 19.9997 9.92831 19.9994L9.92698 19.9989L9.92507 19.9987L9.90558 19.9993C9.89601 19.9996 9.88649 20 9.87674 20C9.2024 20 8.52274 19.9227 7.8574 19.7693C7.67807 19.7283 7.56574 19.5493 7.60707 19.37C7.64807 19.1907 7.82707 19.0767 8.0064 19.1197C8.53207 19.2403 9.06607 19.307 9.5984 19.3253V18.6667C9.5984 18.4823 9.7474 18.3333 9.93174 18.3333C10.1161 18.3333 10.2651 18.4823 10.2651 18.6667V19.3227C11.5187 19.265 12.7001 18.9283 13.7504 18.3743L13.4217 17.8053C13.3294 17.646 13.3841 17.442 13.5437 17.35C13.7024 17.2577 13.9067 17.312 13.9991 17.472L14.3267 18.0397C15.3697 17.378 16.2557 16.492 16.9174 15.449L16.3497 15.1213C16.1904 15.0293 16.1357 14.8257 16.2277 14.666C16.3197 14.506 16.5237 14.452 16.6831 14.544L17.2521 14.8727C17.8137 13.8073 18.1514 12.6067 18.2017 11.333H17.5434C17.3591 11.333 17.2101 11.184 17.2101 10.9997C17.2101 10.8153 17.3591 10.6663 17.5434 10.6663H18.2017C18.1514 9.39267 17.8137 8.192 17.2521 7.12667L16.6831 7.45533C16.6307 7.48567 16.5734 7.5 16.5167 7.5C16.4014 7.5 16.2897 7.44033 16.2277 7.33333C16.1354 7.17367 16.1901 6.97 16.3491 6.878L16.9167 6.55033C16.2551 5.50733 15.3691 4.62133 14.3261 3.95967L13.9984 4.52733C13.9367 4.63433 13.8247 4.694 13.7094 4.694C13.6527 4.694 13.5954 4.67967 13.5431 4.64933C13.3837 4.55733 13.3291 4.35367 13.4211 4.194L13.7497 3.625C12.6994 3.071 11.5181 2.73433 10.2644 2.67667V3.33333C10.2644 3.51767 10.1154 3.66667 9.93107 3.66667C9.74674 3.66667 9.59774 3.51767 9.59774 3.33333V2.67433C9.49974 2.679 9.39907 2.685 9.28974 2.69333L8.93207 2.721C8.62174 2.75667 8.31207 2.80967 8.0054 2.88C7.82607 2.92167 7.64707 2.809 7.60607 2.62967C7.56474 2.45033 7.67707 2.27133 7.8564 2.23033C8.21174 2.149 8.57107 2.09033 8.93107 2.052V1.66667H8.43107C7.9714 1.66667 7.59774 1.293 7.59774 0.833333C7.59774 0.373667 7.9714 0 8.43107 0H11.4311C11.8907 0 12.2647 0.373667 12.2647 0.833333C12.2647 1.293 11.8911 1.66667 11.4314 1.66667H10.9314V2.06367C12.1664 2.20867 13.3247 2.60433 14.3557 3.19833C14.3591 3.20009 14.3625 3.20093 14.366 3.20177C14.3697 3.20268 14.3734 3.20359 14.3771 3.20567C14.3806 3.2078 14.3833 3.2106 14.386 3.2134L14.386 3.21341C14.3884 3.21586 14.3908 3.21831 14.3937 3.22033C14.9721 3.55733 15.5094 3.95633 15.9967 4.409L16.7127 3.69333L16.2411 3.22167L17.6554 1.80767L19.0694 3.22167L17.6554 4.636L17.1841 4.16467L16.4681 4.88033C16.9207 5.36767 17.3194 5.90533 17.6564 6.48333C17.6584 6.48629 17.6609 6.48866 17.6633 6.49103C17.6661 6.49374 17.6689 6.49644 17.6711 6.5L17.6727 6.50378C17.6736 6.50622 17.6742 6.50869 17.6748 6.51115L17.6748 6.51117ZM18.1264 3.22167L17.6551 2.75033L17.1834 3.22167L17.6551 3.69333L18.1264 3.22167ZM9.59774 2.007V1H8.43107C8.3394 1 8.2644 0.925 8.2644 0.833333C8.2644 0.741667 8.3394 0.666667 8.43107 0.666667H11.4311C11.5227 0.666667 11.5977 0.741667 11.5977 0.833333C11.5977 0.925 11.5227 1 11.4311 1H10.2644V2.007C10.1484 2.00233 10.0377 2 9.93107 2C9.9264 2 9.9214 2.00017 9.9164 2.00033C9.9114 2.0005 9.9064 2.00067 9.90174 2.00067C9.89757 2.00067 9.8934 2.0005 9.88924 2.00033C9.88507 2.00017 9.8809 2 9.87674 2C9.84509 2 9.81344 2.00123 9.78179 2.00246C9.75877 2.00335 9.73575 2.00425 9.71274 2.00467C9.69726 2.00507 9.68216 2.00525 9.66705 2.00544C9.6444 2.00572 9.62173 2.006 9.59774 2.007ZM10.2114 12.663C10.5584 12.636 10.8747 12.459 11.0801 12.1767L14.2011 7.862C14.2967 7.72967 14.2824 7.547 14.1664 7.431C14.0504 7.31533 13.8677 7.301 13.7354 7.39633L9.42007 10.5183C9.13874 10.723 8.96174 11.0393 8.93474 11.3863C8.90774 11.7333 9.0334 12.073 9.27907 12.3187C9.50274 12.5427 9.8044 12.6667 10.1181 12.6667C10.1491 12.6667 10.1801 12.6653 10.2114 12.663ZM9.5994 11.4383C9.61107 11.286 9.68907 11.147 9.81174 11.0577L12.4441 9.15333L10.5404 11.785C10.4504 11.9087 10.3114 11.9863 10.1591 11.9983C10.0074 12.0083 9.8584 11.9557 9.75007 11.8473C9.64274 11.7397 9.5874 11.5903 9.5994 11.4383ZM6.93107 4.66667H5.2644C5.08007 4.66667 4.93107 4.81567 4.93107 5C4.93107 5.18433 5.08007 5.33333 5.2644 5.33333H6.93107C7.1154 5.33333 7.2644 5.18433 7.2644 5C7.2644 4.81567 7.1154 4.66667 6.93107 4.66667ZM3.2644 7.33333C3.2644 7.149 3.4134 7 3.59774 7H6.93107C7.1154 7 7.2644 7.149 7.2644 7.33333C7.2644 7.51767 7.1154 7.66667 6.93107 7.66667H3.59774C3.4134 7.66667 3.2644 7.51767 3.2644 7.33333ZM6.93107 9.33333H1.93107C1.74674 9.33333 1.59774 9.48233 1.59774 9.66667C1.59774 9.851 1.74674 10 1.93107 10H6.93107C7.1154 10 7.2644 9.851 7.2644 9.66667C7.2644 9.48233 7.1154 9.33333 6.93107 9.33333ZM0.597738 11.6667H6.93107C7.1154 11.6667 7.2644 11.8157 7.2644 12C7.2644 12.1843 7.1154 12.3333 6.93107 12.3333H0.597738C0.413404 12.3333 0.264404 12.1843 0.264404 12C0.264404 11.8157 0.413404 11.6667 0.597738 11.6667ZM6.93107 14H2.59774C2.4134 14 2.2644 14.149 2.2644 14.3333C2.2644 14.5177 2.4134 14.6667 2.59774 14.6667H6.93107C7.1154 14.6667 7.2644 14.5177 7.2644 14.3333C7.2644 14.149 7.1154 14 6.93107 14ZM4.59774 16.3333H6.93107C7.1154 16.3333 7.2644 16.4823 7.2644 16.6667C7.2644 16.851 7.1154 17 6.93107 17H4.59774C4.4134 17 4.2644 16.851 4.2644 16.6667C4.2644 16.4823 4.4134 16.3333 4.59774 16.3333Z" fill="#A4A4A4"/>
</svg>
