<svg width="16" height="18" viewBox="0 0 16 18" fill="none" xmlns="http://www.w3.org/2000/svg">
<path fill-rule="evenodd" clip-rule="evenodd" d="M15.072 16.0234H14.8323C14.5571 12.906 12.7316 10.5127 11.3126 8.81287C12.732 7.11337 14.5567 4.71975 14.8331 1.60238H15.0727C15.5152 1.60238 15.8737 1.2435 15.8737 0.801C15.8737 0.3585 15.5152 0 15.0727 0H1.05259C0.610087 0 0.251587 0.358875 0.251587 0.801C0.251587 1.2435 0.610087 1.60238 1.05259 1.60238H1.29221C1.56784 4.72013 3.39259 7.11375 4.81196 8.81287C3.39296 10.5124 1.56784 12.9056 1.29184 16.0234H1.05259C0.610087 16.0234 0.251587 16.3815 0.251587 16.824C0.251587 17.2669 0.610087 17.6257 1.05259 17.6257H2.05421H14.0707H15.0727C15.5152 17.6257 15.8737 17.2669 15.8737 16.824C15.8737 16.3815 15.5148 16.0234 15.072 16.0234ZM2.89796 16.0234C3.19909 13.2067 5.03021 11.0378 6.39859 9.417L6.47171 9.33037C6.72371 9.03225 6.72371 8.59575 6.47171 8.29725L6.39896 8.211L6.39591 8.20738C5.02824 6.58665 3.19886 4.41878 2.89796 1.60388H13.227C12.9261 4.41878 11.0967 6.58665 9.72902 8.20738L9.72596 8.211L9.65359 8.29725C9.40159 8.59538 9.40159 9.03187 9.65359 9.33037L9.72671 9.417L9.72745 9.41788C11.0954 11.0385 12.9259 13.2073 13.227 16.0234H2.89796ZM7.66196 8.41088C7.66196 8.6325 7.84159 8.811 8.06246 8.811C8.28334 8.811 8.46296 8.63138 8.46296 8.41088C8.46334 7.94212 8.62984 7.4865 8.93209 7.128C9.60446 6.33075 10.1085 5.46637 10.4276 4.55888C10.4707 4.43625 10.452 4.3005 10.377 4.19438C10.3016 4.08825 10.1801 4.02525 10.05 4.02525H6.07459C5.94446 4.02525 5.82259 4.08825 5.74721 4.19438C5.67221 4.3005 5.65346 4.43625 5.69659 4.55888C6.01646 5.46637 6.51971 6.33075 7.19209 7.128C7.49471 7.4865 7.66159 7.9425 7.66196 8.41088ZM8.46296 10.0162C8.46296 9.795 8.28334 9.61613 8.06246 9.61613C7.84159 9.61613 7.66196 9.79575 7.66196 10.0162C7.66159 10.5945 7.31621 11.1664 6.68959 11.6302C5.34934 12.6199 4.34621 13.695 3.70796 14.8253C3.63784 14.9497 3.63896 15.1013 3.71134 15.2235C3.78259 15.3469 3.91459 15.4223 4.05709 15.4223H12.0686C12.2107 15.4223 12.3423 15.3469 12.4143 15.2235C12.486 15.1013 12.4871 14.9497 12.4173 14.8253C11.7795 13.695 10.776 12.6199 9.43609 11.6302C8.80871 11.1664 8.46334 10.5945 8.46296 10.0162Z" fill="url(#paint0_linear)"/>
<defs>
<linearGradient id="paint0_linear" x1="0.251587" y1="0" x2="0.251587" y2="17.6257" gradientUnits="userSpaceOnUse">
<stop stop-color="#FFBA10"/>
<stop offset="1" stop-color="#FC7712"/>
</linearGradient>
</defs>
</svg>
