<svg width="20" height="20" viewBox="0 0 20 20" fill="none" xmlns="http://www.w3.org/2000/svg">
<circle cx="10" cy="10" r="9" stroke="white"/>
<path d="M9.58601 11.997L9.31301 8.01904L9.24801 6.29004H11.172L11.107 8.01904L10.834 11.997H9.58601ZM10.21 15.156C9.88068 15.156 9.60334 15.0434 9.37801 14.818C9.16134 14.584 9.05301 14.298 9.05301 13.96C9.05301 13.6134 9.16134 13.3274 9.37801 13.102C9.60334 12.868 9.88068 12.751 10.21 12.751C10.5393 12.751 10.8123 12.868 11.029 13.102C11.2543 13.3274 11.367 13.6134 11.367 13.96C11.367 14.298 11.2543 14.584 11.029 14.818C10.8123 15.0434 10.5393 15.156 10.21 15.156Z" fill="white"/>
</svg>
