<svg width="21" height="20" viewBox="0 0 21 20" fill="none" xmlns="http://www.w3.org/2000/svg">
<path fill-rule="evenodd" clip-rule="evenodd" d="M10.3939 0C4.97732 0 0.570571 4.37364 0.570571 9.74955C0.570571 11.4883 1.0359 13.1903 1.91739 14.6799L0.230182 19.6569C0.198753 19.7497 0.22213 19.8523 0.290766 19.9221C0.340312 19.9727 0.407519 20 0.476156 20C0.502455 20 0.528948 19.996 0.554792 19.9878L5.7444 18.3387C7.16453 19.0975 8.7696 19.498 10.394 19.498C15.8101 19.4981 20.2164 15.1249 20.2164 9.74955C20.2164 4.37364 15.8101 0 10.3939 0ZM10.3939 17.4671C8.86544 17.4671 7.38499 17.0258 6.11239 16.1907C6.0696 16.1626 6.01992 16.1482 5.96992 16.1482C5.94349 16.1482 5.917 16.1522 5.89122 16.1604L3.29155 16.9868L4.13077 14.5108C4.15791 14.4307 4.14434 14.3423 4.09434 14.274C3.12525 12.9499 2.61297 11.3854 2.61297 9.74955C2.61297 5.49351 6.10349 2.03091 10.3939 2.03091C14.6838 2.03091 18.1739 5.49351 18.1739 9.74955C18.1739 14.0051 14.6839 17.4671 10.3939 17.4671ZM14.9665 11.4684C14.9945 11.4821 15.0116 11.4905 15.0154 11.4923L15.0155 11.4923C15.2064 11.584 15.3572 11.6564 15.4447 11.8003C15.5725 12.0119 15.5219 12.595 15.3298 13.1287C15.086 13.8063 14.014 14.3618 13.5262 14.405L13.4547 14.4118C13.3419 14.4229 13.214 14.4355 13.0543 14.4355H13.0542C12.6741 14.4355 12.0054 14.3703 10.5934 13.8062C9.12674 13.2203 7.67992 11.9642 6.51934 10.2693C6.51597 10.2644 6.51277 10.2597 6.50976 10.2553C6.4948 10.2334 6.48418 10.2178 6.47791 10.2094C6.17486 9.81 5.46901 8.75981 5.46901 7.64753C5.46901 6.41169 6.06057 5.70896 6.41025 5.48851C6.73999 5.28065 7.48577 5.18247 7.62271 5.17669C7.70394 5.17326 7.71251 5.17231 7.72111 5.17205C7.72442 5.17195 7.72773 5.17195 7.73518 5.17195C8.02421 5.17195 8.23219 5.34734 8.3896 5.72403C8.40531 5.76149 8.45272 5.87557 8.51618 6.02827C8.71711 6.51178 9.07898 7.38253 9.10518 7.43493C9.14719 7.51734 9.27719 7.77253 9.12499 8.07493L9.09233 8.14058L9.09214 8.14096C9.02988 8.26716 8.9761 8.37618 8.85544 8.51656C8.81668 8.56136 8.77719 8.6089 8.73778 8.65636L8.73754 8.65665C8.65437 8.75676 8.56842 8.8602 8.48908 8.9387C8.46194 8.96591 8.40934 9.01864 8.40362 9.03961C8.40364 9.03961 8.40367 9.03978 8.40372 9.04011C8.40421 9.04328 8.40703 9.06142 8.42804 9.09721C8.59083 9.37273 9.77804 11.0066 11.3421 11.686C11.4104 11.7156 11.6361 11.8086 11.6491 11.8086C11.6637 11.8086 11.688 11.7843 11.7058 11.764C11.842 11.61 12.2829 11.0946 12.4286 10.8781C12.5574 10.6854 12.7228 10.5873 12.9197 10.5873C13.0402 10.5873 13.1535 10.6244 13.2593 10.6623C13.4933 10.7466 14.7052 11.3403 14.9665 11.4684Z" fill="white"/>
</svg>
